<?xml version="1.0" encoding="UTF-8"?>
<!DOCTYPE svg PUBLIC "-//W3C//DTD SVG 1.1//EN" "http://www.w3.org/Graphics/SVG/1.1/DTD/svg11.dtd">
<!-- Creator: CorelDRAW -->
<svg xmlns="http://www.w3.org/2000/svg" xml:space="preserve" width="100%" height="100%" style="shape-rendering:geometricPrecision; text-rendering:geometricPrecision; image-rendering:optimizeQuality; fill-rule:evenodd; clip-rule:evenodd"
viewBox="0 0 1800 1000"
 xmlns:xlink="http://www.w3.org/1999/xlink">
 <defs>
  <style type="text/css">
   <![CDATA[
    .str0 {stroke:black;stroke-width:0.762}
    .fil4 {fill:none}
    .fil0 {fill:black}
    .fil3 {fill:#333333}
    .fil6 {fill:#4C4C4C}
    .fil5 {fill:#999999}
    .fil1 {fill:#E5E5E5}
    .fil2 {fill:#FFBF40}
   ]]>
  </style>
  <script type="text/javascript" xlink:href="flat_engine.js" />  
 </defs>
 <g id="圖層_x0020_1">
  <metadata id="CorelCorpID_0Corel-Layer"/>
  <g id="crankshaft">
   <g id="rod_left">
    <polygon id="_91966496" class="fil0 str0" points="348.501,496.268 346.545,424.846 748.569,395.871 749.133,519.426 "/>
    <path id="_91965896" class="fil1" d="M351.424 493.432l394.695 22.814 -0.536 -117.152 -395.961 28.539 1.802 65.799zm28.662 -11.365l266.979 15.43c12.228,0.706 23.839,-2.895 31.221,-13.127 6.037,-8.366 7.988,-19.35 6.98,-29.47 -1.137,-11.414 -6.26,-23.475 -15.74,-30.395 -5.809,-4.241 -12.552,-5.988 -19.702,-5.473l-269.368 19.413c-21.597,1.555 -21.612,42.395 -0.37,43.622zm-0.173 2.994l266.979 15.432c59.203,3.418 50.824,-87.917 2.716,-84.453l-269.368 19.412c-25.309,1.823 -25.307,48.167 -0.327,49.609z"/>
    <polygon id="_91966208" class="fil0" points="694.416,595.939 694.415,327.505 882.9,327.505 882.9,595.939 "/>
    <path id="_91966328" class="fil1" d="M697.416 592.939l0 -262.434 89.841 0 0 262.434 -89.841 0zm92.643 -262.434l89.841 0 0 262.434 -89.841 0 0 -262.434z"/>
    <path id="_91966280" class="fil0" d="M266.766 420.426c22.803,-22.186 59.288,-21.686 81.474,1.117 22.186,22.803 21.686,59.288 -1.116,81.475 -22.804,22.185 -59.289,21.685 -81.476,-1.118 -22.185,-22.803 -21.684,-59.288 1.118,-81.474zm15.374 15.801c-14.078,13.697 -14.387,36.221 -0.69,50.299 13.698,14.078 36.222,14.388 50.3,0.691 14.078,-13.698 14.386,-36.222 0.689,-50.3 -13.697,-14.078 -36.221,-14.387 -50.299,-0.69z"/>
    <path id="_91966640" class="fil1" d="M280.048 434.077c15.265,-14.852 39.689,-14.517 54.541,0.748 14.852,15.265 14.517,39.689 -0.748,54.541 -15.265,14.852 -39.689,14.517 -54.541,-0.748 -14.852,-15.265 -14.517,-39.689 0.748,-54.541zm-11.19 -11.502c21.617,-21.03 56.201,-20.556 77.233,1.06 21.03,21.616 20.556,56.201 -1.059,77.232 -21.617,21.031 -56.201,20.557 -77.233,-1.059 -21.031,-21.616 -20.557,-56.201 1.059,-77.233z"/>
    <g id="piston_left">
     <polygon id="_91966736" class="fil0" points="175.169,319.736 412.527,319.736 412.527,603.886 175.169,603.886 "/>
     <path id="_91966808" class="fil2" d="M178.316 600.74l15.162 0 0.001 -277.858 -15.163 0 0 277.858zm22.827 0l15.328 0 0 -277.858 -15.329 0 0.001 277.858zm22.992 -0.001l185.246 0.001 0 -277.858 -185.246 0 0 277.857z"/>
     <path id="_91966400" class="fil0" d="M278.342 433.119c15.794,-15.794 41.411,-15.794 57.205,0 15.794,15.794 15.794,41.411 0,57.205 -15.794,15.794 -41.411,15.794 -57.205,0 -15.794,-15.794 -15.794,-41.411 0,-57.205z"/>
     <path id="_91966544" class="fil3" d="M280.566 435.343c-14.566,14.566 -14.566,38.19 0,52.756 14.567,14.566 38.19,14.566 52.756,0 14.566,-14.566 14.566,-38.19 0,-52.756 -14.566,-14.566 -38.189,-14.566 -52.756,0zm8.899 8.899c9.655,-9.654 25.304,-9.654 34.958,0 9.655,9.655 9.655,25.304 0,34.958 -9.654,9.655 -25.303,9.655 -34.958,0 -9.654,-9.654 -9.654,-25.303 0,-34.958z"/>
    </g>
    <line id="rod_left_line" class="fil4" x1="780.274" y1="461.721" x2="306.945" y2= "461.722" />
   </g>
   <path id="_91643960" class="fil0" d="M780.23 358.035c57.255,-0.001 103.688,46.432 103.687,103.687 0,57.255 -46.433,103.688 -103.687,103.688 -57.254,0 -103.687,-46.433 -103.687,-103.688 -0.001,-57.255 46.432,-103.688 103.687,-103.687z"/>
   <path id="_91644032" class="fil5" d="M780.23 382.034c-44.008,0 -79.688,35.681 -79.688,79.688 0,44.008 35.681,79.688 79.688,79.689 44.007,-0.001 79.688,-35.681 79.688,-79.689 0,-44.007 -35.68,-79.688 -79.688,-79.688zm0 -20.999c55.599,-0.001 100.688,45.088 100.688,100.687 0,55.599 -45.089,100.687 -100.688,100.688 -55.599,-0.001 -100.688,-45.089 -100.688,-100.688 0,-55.599 45.089,-100.688 100.688,-100.687zm0 18c-45.664,-0.001 -82.688,37.024 -82.688,82.687 0,45.664 37.025,82.687 82.688,82.688 45.663,-0.001 82.688,-37.024 82.688,-82.688 0,-45.663 -37.024,-82.688 -82.688,-82.687z"/>
   <path id="_91643672" class="fil0" d="M900 341.952c66.136,0 119.77,53.634 119.77,119.77 0,66.136 -53.634,119.77 -119.77,119.77 -66.136,0 -119.77,-53.634 -119.77,-119.77 0,-66.136 53.634,-119.77 119.77,-119.77z"/>
   <path id="_91643864" class="fil3" d="M900 344.952c-64.48,0 -116.77,52.29 -116.77,116.77 0,64.48 52.29,116.77 116.77,116.77 64.479,0 116.77,-52.29 116.77,-116.77 0.001,-64.48 -52.29,-116.771 -116.77,-116.77z"/>
   <g id="rod_right">
    <polygon id="_91643552" class="fil0 str0" points="1451.5,496.268 1453.45,424.847 1051.43,395.872 1050.87,519.426 "/>
    <path id="_91643984" class="fil1" d="M1448.58 493.432l-394.695 22.814 0.535 -117.151 395.962 28.538 -1.802 65.799zm-28.662 -11.364l-266.98 15.43c-12.228,0.706 -23.838,-2.896 -31.22,-13.127 -6.037,-8.367 -7.988,-19.351 -6.981,-29.471 1.138,-11.413 6.261,-23.474 15.74,-30.394 5.81,-4.241 12.553,-5.988 19.703,-5.473l269.368 19.412c21.597,1.556 21.612,42.395 0.37,43.623zm0.173 2.993l-266.979 15.432c-59.203,3.419 -50.824,-87.916 -2.717,-84.452l269.369 19.412c25.309,1.822 25.307,48.166 0.327,49.608z"/>
    <polygon id="_91643504" class="fil0" points="1105.59,595.939 1105.59,327.505 917.1,327.505 917.101,595.939 "/>
    <path id="_91643360" class="fil1" d="M1102.59 592.939l0 -262.434 -89.841 0 0 262.434 89.841 0zm-92.643 -262.434l-89.841 0 0 262.434 89.841 0 0 -262.434z"/>
    <path id="_91643312" class="fil0" d="M1533.23 420.426c-22.803,-22.186 -59.288,-21.685 -81.474,1.118 -22.186,22.803 -21.685,59.287 1.117,81.474 22.804,22.185 59.289,21.685 81.475,-1.117 22.186,-22.804 21.685,-59.289 -1.118,-81.475zm-15.373 15.801c14.078,13.698 14.387,36.221 0.689,50.299 -13.697,14.078 -36.221,14.388 -50.299,0.691 -14.078,-13.697 -14.387,-36.222 -0.689,-50.3 13.697,-14.078 36.22,-14.387 50.299,-0.69z"/>
    <path id="_91644248" class="fil1" d="M1519.95 434.077c-15.266,-14.852 -39.69,-14.517 -54.542,0.748 -14.852,15.265 -14.517,39.689 0.748,54.541 15.266,14.852 39.69,14.517 54.542,-0.748 14.852,-15.265 14.517,-39.689 -0.748,-54.541zm11.19 -11.501c-21.617,-21.031 -56.201,-20.556 -77.233,1.059 -21.03,21.617 -20.556,56.201 1.059,77.233 21.617,21.03 56.201,20.556 77.233,-1.059 21.031,-21.617 20.556,-56.201 -1.059,-77.233z"/>
    <g id="piston_right">
     <polygon id="_91643888" class="fil0" points="1624.55,320.043 1387.7,320.043 1387.7,603.577 1624.55,603.577 "/>
     <path id="_91643840" class="fil2" d="M1621.41 600.437l-15.129 0 -0.001 -277.254 15.13 0 0 22.226 0 0.001c0,85.007 0,170.023 0,255.027zm-22.777 0l-15.295 0 0 -277.254 15.295 0 0 277.254zm-22.943 0l-184.843 0 -0.001 -277.254 184.844 0 0 277.254z"/>
     <path id="_91643456" class="fil0" d="M1521.6 433.18c-15.76,-15.76 -41.321,-15.76 -57.081,0 -15.76,15.76 -15.76,41.322 0,57.081 15.76,15.76 41.321,15.76 57.081,0 15.76,-15.759 15.76,-41.321 0,-57.081z"/>
     <path id="_91644128" class="fil3" d="M1519.38 435.4c14.535,14.535 14.535,38.107 0,52.641 -14.534,14.535 -38.107,14.535 -52.641,0 -14.534,-14.534 -14.534,-38.106 0,-52.641 14.534,-14.534 38.107,-14.534 52.641,0zm-8.879 8.88c-9.634,-9.634 -25.249,-9.634 -34.882,0 -9.634,9.633 -9.634,25.248 0,34.882 9.633,9.634 25.248,9.634 34.882,0 9.633,-9.634 9.633,-25.249 0,-34.882z"/>
    </g>
    <line id="rod_right_line" class="fil4" x1="1019.73" y1="461.722" x2="1493.06" y2= "461.722" />
   </g>
   <path id="_92997328" class="fil0" d="M1019.77 358.035c57.255,-0.001 103.688,46.432 103.687,103.687 0,57.255 -46.433,103.688 -103.687,103.688 -57.254,0 -103.687,-46.433 -103.687,-103.688 -0.001,-57.255 46.432,-103.688 103.687,-103.687z"/>
   <path id="_92995960" class="fil5" d="M1019.77 382.034c-44.008,0 -79.688,35.681 -79.688,79.688 0,44.008 35.681,79.688 79.688,79.689 44.007,-0.001 79.688,-35.681 79.688,-79.689 0,-44.007 -35.68,-79.688 -79.688,-79.688zm0 -20.999c55.599,-0.001 100.688,45.088 100.688,100.687 0,55.599 -45.089,100.687 -100.688,100.688 -55.599,-0.001 -100.688,-45.089 -100.688,-100.688 0,-55.599 45.089,-100.688 100.688,-100.687zm0 18c-45.664,-0.001 -82.688,37.024 -82.688,82.687 0,45.664 37.025,82.687 82.688,82.688 45.663,-0.001 82.688,-37.024 82.688,-82.688 0,-45.663 -37.024,-82.688 -82.688,-82.687z"/>
  </g>
  <g id="_92441616">
   <path id="_92441664" class="fil0" d="M669.323 300.336l-521.704 0 0.001 29.914c-51.632,22.033 -84.081,75.355 -84.081,132.095 0,56.741 32.449,110.064 84.081,132.097l0 28.836 521.703 0 -26 -26.001 -469.703 0.001 0 -21.452c-48.179,-12.015 -84.081,-58.267 -84.082,-113.48 0.001,-55.213 35.902,-101.466 84.082,-113.48l0 -22.53 469.702 0 26.001 -26z"/>
   <path id="_92442048" class="fil6" d="M662.08 303.336l-511.46 0 0 28.896 -1.823 0.777c-51.086,21.8 -82.258,74.465 -82.258,129.337 -0.001,54.871 31.172,107.537 82.258,129.337l1.823 0.777 0 27.818 511.46 0 -20.001 -20 -471.459 0 0 -22.134c-51.368,-13.995 -84.081,-63.488 -84.081,-115.798 0,-52.311 32.713,-101.803 84.081,-115.798l-0.001 -23.212 471.461 0 20 -20z"/>
   <path id="_92441352" class="fil0" d="M1130.68 300.336l521.703 0 0 29.914c51.632,22.033 84.08,75.355 84.081,132.095 0,56.742 -32.449,110.064 -84.081,132.097l0 28.836 -521.704 0 26.001 -26 469.703 0 0 -21.452c48.179,-12.014 84.081,-58.267 84.081,-113.48 0,-55.213 -35.902,-101.466 -84.081,-113.48l0 -22.53 -469.703 0 -26 -26z"/>
   <path id="_92441568" class="fil6" d="M1137.92 303.336l511.46 0 -0.001 28.896 1.824 0.777c51.086,21.8 82.258,74.466 82.258,129.337 0,54.871 -31.172,107.537 -82.258,129.337l-1.824 0.777 0.001 27.818 -511.46 0 20 -20 471.46 0 0 -22.134c51.368,-13.995 84.081,-63.487 84.081,-115.798 0,-52.31 -32.713,-101.803 -84.081,-115.798l0 -23.212 -471.46 0 -20 -20z"/>
  </g>
  <line id="center" class="fil4" x1="900" y1="461.722" x2="900" y2= "461.722" />
 </g>
</svg>
