<?xml version="1.0" encoding="UTF-8"?>
<!DOCTYPE svg PUBLIC "-//W3C//DTD SVG 1.1//EN" "http://www.w3.org/Graphics/SVG/1.1/DTD/svg11.dtd">
<!-- Creator: CorelDRAW -->
<svg xmlns="http://www.w3.org/2000/svg" xml:space="preserve" width="100%" height="100%" style="shape-rendering:geometricPrecision; text-rendering:geometricPrecision; image-rendering:optimizeQuality; fill-rule:evenodd; clip-rule:evenodd"
viewBox="0 0 1500 1500"
 xmlns:xlink="http://www.w3.org/1999/xlink">
 <defs>
  <style type="text/css">
   <![CDATA[
    .str0 {stroke:#1F1A17;stroke-width:0.762}
    .fil3 {fill:none}
    .fil0 {fill:black}
    .fil1 {fill:#4C4C4C}
    .fil6 {fill:#999999}
    .fil2 {fill:#B2B2B2}
    .fil4 {fill:#E5E5E5}
    .fil5 {fill:#FFB726}
   ]]>
  </style>
  <script type="text/javascript" xlink:href="radial_engine.js" /> 
 </defs>
 <g id="圖層_x0020_2">
  <metadata id="CorelCorpID_0Corel-Layer"/>
  <g id="crankshaft">
   <path id="_96926080" class="fil0" d="M784.033 824.018l166.629 167.404 -1.417 1.41c-58.092,57.826 -135.995,90.017 -217.978,90.017 -81.983,0 -159.886,-32.191 -217.978,-90.017l-1.417 -1.41 166.629 -167.404 0 -147.204c0,-29.137 23.629,-52.766 52.766,-52.766 29.137,0 52.766,23.629 52.766,52.766l0 147.204z"/>
   <path id="_96924928" class="fil1" d="M782.033 676.814l0 148.03 165.801 166.571c-55.521,55.266 -132.059,89.434 -216.567,89.434 -84.508,0 -161.046,-34.168 -216.567,-89.434l165.801 -166.571 0 -148.03c0,-28.033 22.733,-50.766 50.766,-50.766 28.033,0 50.766,22.733 50.766,50.766z"/>
   <path id="_96924688" class="fil0" d="M731.267 755.534c10.11,0 18.308,8.198 18.308,18.308 0,10.11 -8.198,18.308 -18.308,18.308 -10.11,0 -18.308,-8.198 -18.308,-18.308 0,-10.11 8.198,-18.308 18.308,-18.308zm0 -19.475c20.863,0 37.783,16.919 37.783,37.783 0,20.863 -16.92,37.783 -37.783,37.783 -20.864,0 -37.783,-16.92 -37.783,-37.783 0,-20.864 16.919,-37.783 37.783,-37.783zm0 17.475c11.214,0 20.308,9.094 20.308,20.308 0,11.214 -9.094,20.308 -20.308,20.308 -11.214,0 -20.308,-9.094 -20.308,-20.308 0,-11.214 9.094,-20.308 20.308,-20.308zm0 -15.475c-19.76,0 -35.783,16.023 -35.783,35.783 0,19.76 16.023,35.783 35.783,35.783 19.759,0 35.783,-16.024 35.783,-35.783 0,-19.76 -16.023,-35.783 -35.783,-35.783z"/>
   <g id="rod_m">
    <path id="_96924784" class="fil0" d="M645.145 805.782c-3.96,-2.993 -7.764,-6.192 -11.396,-9.576 -2.614,0.468 -5.267,0.703 -7.924,0.703 -24.705,0 -44.739,-20.034 -44.739,-44.739 0,-10.601 3.72,-20.759 10.539,-28.837 -1.115,-4.855 -1.972,-9.768 -2.577,-14.713 -13.871,-7.963 -22.489,-22.711 -22.489,-38.809 0,-21.792 15.735,-40.41 37.093,-44.087 2.264,-4.43 4.759,-8.74 7.471,-12.911 -1.814,-4.937 -2.732,-10.146 -2.732,-15.413 0,-24.705 20.034,-44.739 44.739,-44.739 7.911,0 15.624,2.064 22.45,6.031 4.588,-1.949 9.278,-3.656 14.045,-5.115 1.439,-3.974 3.443,-7.725 5.936,-11.139l2.508 -309.296c-2.467,-3.605 -4.293,-7.606 -5.41,-11.827 -5.393,-20.311 6.92,-41.539 27.233,-46.929 20.313,-5.403 41.544,6.931 46.934,27.243 2.833,10.672 0.949,21.946 -5.172,31.134l5.985 309.388c2.592,3.49 4.665,7.34 6.144,11.426 4.757,1.455 9.437,3.159 14.015,5.102 6.775,-3.887 14.411,-5.907 22.237,-5.907 24.705,0 44.739,20.034 44.739,44.739 0,5.155 -0.881,10.254 -2.62,15.1 2.762,4.233 5.301,8.612 7.602,13.113 21.358,3.677 37.093,22.295 37.093,44.087 0,16.098 -8.618,30.846 -22.489,38.809 -0.604,4.945 -1.462,9.858 -2.577,14.713 6.819,8.078 10.539,18.236 10.539,28.837 0,24.705 -20.034,44.739 -44.739,44.739 -2.656,0 -5.309,-0.235 -7.923,-0.703 -3.491,3.253 -7.141,6.334 -10.937,9.227 0.027,0.627 0.04,1.254 0.04,1.882 0,24.705 -20.034,44.739 -44.739,44.739 -13.948,0 -26.976,-6.459 -35.447,-17.447 -2.289,0.109 -4.581,0.168 -6.873,0.168 -2.485,0 -4.97,-0.071 -7.452,-0.2 -8.504,10.2 -21.027,16.105 -34.368,16.105 -24.705,0 -44.739,-20.034 -44.739,-44.739 0,-0.053 0,-0.106 0,-0.159z"/>
    <path id="_96924712" class="fil2" d="M765.652 542.838l-6.01 -310.664 0.348 -0.521c5.801,-8.707 7.59,-19.389 4.903,-29.511 -5.129,-19.327 -25.159,-30.964 -44.487,-25.823 -19.329,5.129 -30.946,25.155 -25.814,44.483 1.06,4.005 2.788,7.791 5.128,11.211l0.354 0.518 -2.518 310.575c-2.732,3.626 -4.904,7.698 -6.378,12.091 -5.389,1.607 -10.647,3.525 -15.747,5.735 -6.493,-3.978 -14.13,-6.271 -22.301,-6.271 -23.601,0 -42.739,19.138 -42.739,42.739 0,5.527 1.052,10.807 2.964,15.655 -3.066,4.644 -5.867,9.477 -8.38,14.482 -20.602,3.058 -36.416,20.822 -36.416,42.274 0,16.218 9.042,30.321 22.355,37.561 0.646,5.605 1.611,11.111 2.89,16.498 -6.666,7.538 -10.718,17.448 -10.718,28.3 0,23.601 19.138,42.739 42.739,42.739 2.927,0 5.788,-0.298 8.55,-0.859 4.046,3.823 8.313,7.414 12.787,10.744 -0.01,0.38 -0.017,0.764 -0.017,1.147 0,23.601 19.138,42.739 42.739,42.739 13.552,0 25.631,-6.315 33.461,-16.158 2.767,0.161 5.551,0.253 8.359,0.253 2.629,0 5.239,-0.079 7.833,-0.22 7.778,10.607 20.33,17.499 34.487,17.499 23.601,0 42.739,-19.138 42.739,-42.739 0,-0.952 -0.032,-1.899 -0.094,-2.836 4.32,-3.242 8.447,-6.725 12.365,-10.429 2.761,0.561 5.623,0.859 8.549,0.859 23.601,0 42.739,-19.138 42.739,-42.739 0,-10.852 -4.052,-20.762 -10.718,-28.3 1.278,-5.387 2.246,-10.893 2.89,-16.498 13.313,-7.24 22.355,-21.343 22.355,-37.561 0,-21.452 -15.814,-39.216 -36.416,-42.274 -2.548,-5.073 -5.39,-9.971 -8.507,-14.674 1.837,-4.766 2.848,-9.939 2.848,-15.352 0,-23.601 -19.138,-42.739 -42.739,-42.739 -8.083,0 -15.647,2.244 -22.094,6.144 -5.089,-2.203 -10.334,-4.116 -15.711,-5.719 -1.51,-4.502 -3.75,-8.666 -6.578,-12.359z"/>
    <path id="_96925576" class="fil0" d="M732.25 657.987c-18.271,0.103 -33.02,15.019 -32.917,33.29 0.102,18.27 15.018,33.019 33.289,32.916 18.271,-0.102 33.019,-15.018 32.916,-33.288 -0.102,-18.271 -15.017,-33.02 -33.288,-32.918zm0.038 6.763c14.547,-0.082 26.407,11.646 26.489,26.193 0.081,14.546 -11.646,26.407 -26.193,26.488 -14.547,0.082 -26.407,-11.645 -26.489,-26.192 -0.081,-14.547 11.646,-26.407 26.193,-26.489zm-0.049 -8.763c19.374,-0.109 35.191,15.532 35.299,34.906 0.109,19.375 -15.53,35.191 -34.905,35.3 -19.374,0.109 -35.192,-15.53 -35.3,-34.905 -0.109,-19.375 15.531,-35.192 34.906,-35.301zm0.06 10.763c13.443,-0.075 24.402,10.761 24.478,24.204 0.075,13.443 -10.761,24.402 -24.204,24.477 -13.443,0.076 -24.402,-10.761 -24.478,-24.203 -0.075,-13.443 10.761,-24.402 24.204,-24.478z"/>
    <line id="rod_m_line" class="fil3" x1="729.741" y1="211.471" x2="732.436" y2= "691.091" />
    <g id="rod_8">
     <path id="_96924568" class="fil0" d="M425.624 355.573l239.001 203.886c2.137,0.651 4.251,1.488 6.314,2.525 19.563,9.84 27.434,33.674 17.608,53.226 -9.841,19.563 -33.674,27.434 -53.227,17.607 -8.429,-4.24 -14.686,-11.083 -18.293,-19.057l-233.313 -210.367c-4.221,-0.534 -8.423,-1.778 -12.439,-3.802 -18.928,-9.522 -26.561,-32.584 -17.034,-51.515 9.515,-18.933 32.593,-26.559 51.525,-17.032 10.23,5.147 17.154,14.256 19.858,24.529z"/>
     <path id="_96925432" class="fil4" d="M423.69 356.082c-2.664,-10.118 -9.468,-18.545 -18.823,-23.252 -17.862,-8.988 -39.858,-1.726 -48.839,16.145 -8.99,17.863 -1.718,39.843 16.146,48.83 3.7,1.864 7.68,3.084 11.791,3.604l0.622 0.079 234.09 211.067 0.172 0.381c3.553,7.853 9.669,14.22 17.37,18.094 18.49,9.292 41.241,1.769 50.541,-16.718 9.292,-18.49 1.769,-41.242 -16.719,-50.541 -1.927,-0.97 -3.935,-1.771 -5.999,-2.398l-0.398 -0.122 -239.795 -204.564 -0.159 -0.605zm241.587 217.158c-13.334,-6.71 -29.601,-1.336 -36.308,12.013 -6.71,13.334 -1.336,29.601 12.014,36.308 13.334,6.71 29.6,1.336 36.308,-12.013 6.709,-13.335 1.336,-29.601 -12.014,-36.308zm-2.387 4.755c10.713,5.392 15.032,18.452 9.645,29.166 -5.392,10.713 -18.452,15.031 -29.165,9.645 -10.714,-5.392 -15.032,-18.452 -9.646,-29.166 5.393,-10.713 18.453,-15.031 29.166,-9.645zm-0.906 1.786c9.722,4.899 13.654,16.751 8.765,26.474 -4.899,9.722 -16.751,13.653 -26.474,8.765 -9.721,-4.899 -13.653,-16.751 -8.765,-26.474 4.899,-9.722 16.752,-13.653 26.474,-8.765zm4.205 -8.326c14.322,7.205 20.089,24.667 12.886,39.005 -7.205,14.322 -24.667,20.088 -39.004,12.886 -14.322,-7.205 -20.089,-24.668 -12.887,-39.005 7.205,-14.322 24.668,-20.088 39.005,-12.886z"/>
     <line id="rod_8_line" class="fil3" x1="388.519" y1="365.319" x2="653.13" y2= "597.4" />
     <g id="piston_8">
      <polygon id="_96926248" class="fil0" points="363.198,474.596 499.758,360.796 411.286,254.631 346.608,286.81 318.041,310.615 274.727,368.431 "/>
      <path id="_96360392" class="fil5" d="M363.467 471.64l-63.2 -75.84 133.335 -111.112 63.2 75.839 -133.335 111.113zm-68.612 -82.334l-6.836 -8.204 133.334 -111.113 6.837 8.204 -133.335 111.113zm-12.249 -14.699l-5.204 -6.245 42.172 -56.292 28.189 -23.491 62.973 -31.33 5.205 6.246 -133.335 111.112z"/>
      <path id="_96360128" class="fil0" d="M403.111 382.787c9.63,-8.024 10.93,-22.331 2.906,-31.961 -8.024,-9.629 -22.332,-10.929 -31.961,-2.905 -9.629,8.024 -10.93,22.332 -2.905,31.961 8.024,9.629 22.331,10.93 31.96,2.905z"/>
      <path id="_96360584" class="fil6" d="M394.281 372.191c3.776,-3.147 4.286,-8.758 1.139,-12.534 -3.147,-3.776 -8.757,-4.286 -12.533,-1.139 -3.777,3.146 -4.287,8.757 -1.14,12.533 3.147,3.776 8.758,4.286 12.534,1.14z"/>
      <path id="_96360632" class="fil4" d="M401.768 381.175c-8.739,7.282 -21.722,6.102 -29.005,-2.637 -7.283,-8.739 -6.102,-21.722 2.637,-29.005 8.739,-7.282 21.722,-6.102 29.004,2.637 7.283,8.739 6.103,21.722 -2.636,29.005zm-6.143 -7.372c4.666,-3.889 5.296,-10.823 1.408,-15.49 -3.889,-4.666 -10.824,-5.296 -15.49,-1.408 -4.666,3.889 -5.297,10.824 -1.408,15.49 3.888,4.666 10.823,5.297 15.49,1.408z"/>
     </g>
    </g>
    <g id="rod_7">
     <path id="_96359912" class="fil0" d="M279.48 658.133l313.281 -23.365c1.977,-1.042 4.067,-1.936 6.263,-2.651 20.823,-6.777 43.189,4.614 49.969,25.42 6.777,20.823 -4.615,43.189 -25.421,49.969 -8.972,2.92 -18.233,2.462 -26.408,-0.664l-313.801 14.759c-3.374,2.591 -7.236,4.664 -11.513,6.053 -20.147,6.557 -41.802,-4.454 -48.357,-24.609 -6.565,-20.145 4.462,-41.805 24.617,-48.361 10.89,-3.544 22.22,-1.945 31.37,3.449z"/>
     <path id="_96360680" class="fil4" d="M278.465 659.856c-9.013,-5.313 -19.778,-6.511 -29.737,-3.271 -19.014,6.186 -29.53,26.826 -23.333,45.842 6.186,19.017 26.822,29.514 45.837,23.325 3.941,-1.279 7.626,-3.213 10.912,-5.737l0.498 -0.382 314.847 -14.808 0.389 0.15c8.052,3.078 16.877,3.297 25.075,0.629 19.675,-6.412 30.543,-27.769 24.138,-47.447 -6.412,-19.675 -27.769,-30.543 -47.447,-24.138 -2.052,0.667 -4.042,1.512 -5.949,2.518l-0.369 0.194 -314.322 23.443 -0.539 -0.318zm324.458 -15.758c-14.195,4.618 -21.969,19.884 -17.338,34.088 4.618,14.195 19.884,21.969 34.088,17.339 14.195,-4.618 21.969,-19.884 17.338,-34.088 -4.618,-14.195 -19.883,-21.969 -34.088,-17.339zm1.651 5.058c11.406,-3.709 23.665,2.53 27.379,13.932 3.709,11.406 -2.529,23.665 -13.931,27.378 -11.406,3.709 -23.665,-2.529 -27.379,-13.931 -3.709,-11.406 2.53,-23.665 13.931,-27.379zm0.614 1.907c10.354,-3.362 21.489,2.291 24.859,12.638 3.361,10.354 -2.291,21.489 -12.639,24.859 -10.354,3.362 -21.488,-2.291 -24.859,-12.639 -3.361,-10.354 2.292,-21.488 12.639,-24.858zm-2.873 -8.874c15.245,-4.962 31.632,3.385 36.606,18.64 4.961,15.245 -3.386,31.631 -18.64,36.605 -15.245,4.962 -31.632,-3.385 -36.606,-18.64 -4.961,-15.245 3.386,-31.631 18.64,-36.605z"/>
     <line id="rod_7_line" class="fil3" x1="259.98" y1="691.17" x2="611.298" y2= "669.811" />
     <g id="piston_7">
      <polygon id="_96360272" class="fil0" points="311.35,791.124 342.242,615.814 205.951,591.797 177.28,658.217 170.818,694.889 175.059,767.108 "/>
      <path id="_96360344" class="fil5" d="M309.645 788.69l-97.36 -17.156 30.162 -171.171 97.36 17.156 -30.162 171.171zm-105.698 -18.626l-10.532 -1.856 30.163 -171.17 10.532 1.856 -30.163 171.17zm-18.869 -3.325l-8.018 -1.413 -4.13 -70.314 6.377 -36.189 27.915 -64.667 8.018 1.413 -30.162 171.17z"/>
      <path id="_96360704" class="fil0" d="M282.535 695.104c2.179,-12.362 -6.075,-24.145 -18.436,-26.324 -12.362,-2.178 -24.146,6.075 -26.324,18.437 -2.178,12.361 6.075,24.145 18.437,26.324 12.361,2.178 24.145,-6.075 26.323,-18.437z"/>
      <path id="_97766320" class="fil6" d="M268.932 692.707c0.854,-4.848 -2.383,-9.469 -7.23,-10.323 -4.848,-0.854 -9.469,2.382 -10.323,7.23 -0.855,4.848 2.382,9.469 7.23,10.323 4.847,0.854 9.468,-2.382 10.323,-7.23z"/>
      <path id="_97767328" class="fil4" d="M280.465 694.739c-1.977,11.219 -12.67,18.708 -23.889,16.732 -11.219,-1.977 -18.708,-12.67 -16.731,-23.889 1.977,-11.219 12.67,-18.709 23.889,-16.732 11.219,1.977 18.708,12.67 16.731,23.889zm-9.463 -1.667c1.055,-5.991 -2.945,-11.702 -8.936,-12.758 -5.99,-1.056 -11.702,2.945 -12.757,8.935 -1.056,5.991 2.945,11.702 8.935,12.758 5.99,1.055 11.702,-2.945 12.758,-8.935z"/>
     </g>
    </g>
    <g id="rod_6">
     <path id="_97766512" class="fil0" d="M358.393 948.943l231.149 -212.747c0.903,-2.044 1.988,-4.042 3.265,-5.965 12.122,-18.237 36.729,-23.185 54.958,-11.079 18.237,12.122 23.185,36.729 11.078,54.958 -5.223,7.858 -12.769,13.246 -21.118,15.869l-236.899 206.321c-1.037,4.126 -2.778,8.148 -5.27,11.892 -11.729,17.644 -35.542,22.449 -53.19,10.714 -17.651,-11.722 -22.446,-35.55 -10.712,-53.199 6.34,-9.537 16.216,-15.315 26.739,-16.764z"/>
     <path id="_97764664" class="fil4" d="M358.666 950.924c-10.364,1.428 -19.549,7.169 -25.346,15.891 -11.071,16.65 -6.508,39.361 10.153,50.425 16.652,11.073 39.348,6.497 50.418,-10.157 2.296,-3.449 3.985,-7.252 4.995,-11.271l0.154 -0.608 237.687 -207.009 0.398 -0.124c8.224,-2.584 15.28,-7.889 20.052,-15.068 11.449,-17.238 6.716,-40.729 -10.519,-52.185 -17.238,-11.448 -40.729,-6.716 -52.185,10.519 -1.194,1.797 -2.23,3.694 -3.101,5.667l-0.169 0.381 -231.917 213.454 -0.62 0.085zm244.635 -213.718c-8.265,12.43 -4.886,29.225 7.56,37.489 12.43,8.265 29.225,4.886 37.489,-7.56 8.265,-12.431 4.886,-29.226 -7.56,-37.49 -12.43,-8.264 -29.225,-4.886 -37.489,7.561zm4.433 2.941c6.642,-9.987 20.126,-12.703 30.115,-6.068 9.986,6.642 12.703,20.126 6.067,30.114 -6.641,9.987 -20.126,12.704 -30.114,6.068 -9.987,-6.641 -12.703,-20.126 -6.068,-30.114zm1.665 1.114c6.032,-9.062 18.271,-11.54 27.336,-5.517 9.061,6.032 11.539,18.271 5.517,27.336 -6.033,9.061 -18.271,11.539 -27.336,5.517 -9.062,-6.033 -11.539,-18.272 -5.517,-27.336zm-7.76 -5.175c8.875,-13.352 26.904,-16.977 40.271,-8.102 13.352,8.874 16.976,26.904 8.102,40.271 -8.875,13.351 -26.904,16.976 -40.271,8.102 -13.352,-8.875 -16.977,-26.904 -8.102,-40.271z"/>
     <line id="rod_6_line" class="fil3" x1="363.606" y1="986.95" x2="625.825" y2= "752.17" />
     <g id="piston_6">
      <polygon id="_97767424" class="fil0" points="466.732,1030.61 378.254,876.779 258.659,945.563 279.204,1014.7 297.712,1046.88 347.137,1099.4 "/>
      <path id="_97763992" class="fil5" d="M463.871 1029.84l-85.433 49.137 -86.389 -150.202 85.434 -49.136 86.388 150.201zm-92.75 53.345l-9.241 5.315 -86.388 -150.201 9.241 -5.316 86.388 150.202zm-16.558 9.523l-7.035 4.047 -48.122 -51.137 -18.264 -31.756 -20.002 -67.309 7.035 -4.047 86.388 150.202z"/>
      <path id="_97766368" class="fil0" d="M383.293 975.601c-6.239,-10.847 -20.087,-14.582 -30.934,-8.343 -10.847,6.239 -14.582,20.086 -8.343,30.933 6.239,10.847 20.086,14.582 30.933,8.344 10.847,-6.239 14.582,-20.087 8.344,-30.934z"/>
      <path id="_97764016" class="fil6" d="M371.356 982.467c-2.447,-4.254 -7.877,-5.719 -12.131,-3.272 -4.254,2.446 -5.719,7.877 -3.272,12.131 2.446,4.254 7.877,5.718 12.131,3.272 4.254,-2.447 5.718,-7.877 3.272,-12.131z"/>
      <path id="_97767232" class="fil4" d="M381.476 976.646c5.662,9.845 2.273,22.41 -7.571,28.072 -9.845,5.662 -22.411,2.273 -28.073,-7.571 -5.662,-9.845 -2.273,-22.411 7.572,-28.073 9.845,-5.662 22.41,-2.273 28.072,7.572zm-8.304 4.776c-3.023,-5.256 -9.735,-7.067 -14.992,-4.044 -5.256,3.024 -7.067,9.736 -4.043,14.992 3.023,5.257 9.735,7.067 14.991,4.044 5.257,-3.023 7.067,-9.735 4.044,-14.992z"/>
     </g>
    </g>
    <g id="rod_5">
     <path id="_97764928" class="fil0" d="M571.73 1116.23l79.003 -304.055c-0.348,-2.207 -0.519,-4.475 -0.487,-6.784 0.306,-21.896 18.307,-39.387 40.188,-39.089 21.896,0.307 39.388,18.308 39.089,40.189 -0.132,9.434 -3.555,18.052 -9.152,24.78l-87.318 301.77c1.364,4.029 2.08,8.353 2.014,12.85 -0.297,21.185 -17.708,38.126 -38.9,37.825 -21.186,-0.288 -38.128,-17.717 -37.828,-38.908 0.162,-11.451 5.332,-21.659 13.391,-28.578z"/>
     <path id="_97766632" class="fil4" d="M573.033 1117.75c-7.938,6.816 -12.546,16.617 -12.694,27.089 -0.283,19.993 15.858,36.608 35.857,36.881 19.995,0.283 36.591,-15.86 36.872,-35.855 0.061,-4.143 -0.581,-8.255 -1.909,-12.18l-0.201 -0.595 87.609 -302.774 0.267 -0.321c5.512,-6.627 8.568,-14.909 8.689,-23.529 0.282,-20.692 -16.424,-37.871 -37.116,-38.161 -20.692,-0.282 -37.872,16.424 -38.161,37.117 -0.03,2.157 0.126,4.313 0.463,6.444l0.065 0.411 -79.266 305.065 -0.475 0.408zm89.811 -312.179c-0.211,14.926 11.729,27.211 26.668,27.413 14.925,0.211 27.211,-11.729 27.413,-26.667 0.21,-14.926 -11.729,-27.211 -26.668,-27.413 -14.925,-0.211 -27.211,11.729 -27.413,26.667zm5.321 0.07c0.171,-11.993 10.032,-21.582 22.022,-21.417 11.993,0.171 21.582,10.033 21.417,22.023 -0.171,11.992 -10.032,21.582 -22.022,21.417 -11.993,-0.171 -21.582,-10.033 -21.417,-22.023zm2.002 0.034c0.16,-10.885 9.105,-19.599 19.986,-19.448 10.885,0.16 19.599,9.104 19.449,19.986 -0.161,10.884 -9.105,19.599 -19.986,19.448 -10.885,-0.16 -19.599,-9.104 -19.449,-19.986zm-9.326 -0.145c0.225,-16.03 13.414,-28.846 29.457,-28.63 16.031,0.225 28.846,13.415 28.63,29.458 -0.225,16.03 -13.414,28.846 -29.457,28.63 -16.031,-0.225 -28.846,-13.415 -28.63,-29.458z"/>
     <line id="rod_5_line" class="fil3" x1="596.705" y1="1145.35" x2="689.884" y2= "805.941" />
     <g id="piston_5">
      <polygon id="_97764832" class="fil0" points="703.801,1112.26 536.866,1051.57 489.684,1181.35 549.994,1221.02 584.915,1233.72 656.619,1242.04 "/>
      <path id="_97767280" class="fil5" d="M701.113 1113.52l-33.704 92.708 -162.993 -59.256 33.705 -92.709 162.992 59.257zm-36.591 100.648l-3.646 10.028 -162.992 -59.257 3.646 -10.028 162.992 59.257zm-6.532 17.968l-2.776 7.634 -69.813 -8.107 -34.46 -12.528 -58.719 -38.621 2.775 -7.635 162.993 59.257z"/>
      <path id="_97767880" class="fil0" d="M604.455 1123.97c-11.771,-4.28 -24.779,1.792 -29.058,13.563 -4.28,11.771 1.792,24.779 13.563,29.058 11.771,4.28 24.779,-1.792 29.058,-13.563 4.28,-11.771 -1.792,-24.779 -13.563,-29.058z"/>
      <path id="_97767976" class="fil6" d="M599.746 1136.92c-4.616,-1.678 -9.717,0.703 -11.396,5.319 -1.678,4.616 0.703,9.718 5.319,11.396 4.616,1.678 9.718,-0.703 11.396,-5.319 1.678,-4.616 -0.703,-9.717 -5.319,-11.396z"/>
      <path id="_97764304" class="fil4" d="M603.739 1125.94c10.683,3.884 16.192,15.688 12.308,26.371 -3.884,10.683 -15.687,16.192 -26.37,12.308 -10.683,-3.884 -16.193,-15.688 -12.309,-26.371 3.884,-10.682 15.688,-16.192 26.371,-12.308zm-3.277 9.011c-5.704,-2.073 -12.009,0.87 -14.083,6.574 -2.073,5.704 0.87,12.009 6.574,14.083 5.704,2.074 12.009,-0.869 14.083,-6.574 2.074,-5.704 -0.869,-12.009 -6.574,-14.083z"/>
     </g>
    </g>
    <g id="rod_4">
     <path id="_97764952" class="fil0" d="M830.436 1133.18l-87.246 -301.794c-1.426,-1.72 -2.73,-3.582 -3.881,-5.584 -10.912,-18.986 -4.36,-43.215 14.609,-54.126 18.986,-10.912 43.215,-4.359 54.126,14.609 4.702,8.181 6.157,17.338 4.778,25.981l78.929 304.072c3.23,2.769 6.052,6.122 8.291,10.023 10.557,18.369 4.23,41.824 -14.147,52.381 -18.366,10.566 -41.83,4.224 -52.388,-14.153 -5.706,-9.929 -6.47,-21.346 -3.071,-31.409z"/>
     <path id="_97766944" class="fil4" d="M832.331 1133.82c-3.347,9.913 -2.308,20.694 2.91,29.774 9.961,17.338 32.322,23.388 49.658,13.415 17.34,-9.961 23.372,-32.314 13.408,-49.652 -2.062,-3.594 -4.712,-6.803 -7.858,-9.5l-0.476 -0.409 -79.192 -305.084 0.066 -0.412c1.358,-8.512 -0.242,-17.194 -4.537,-24.668 -10.318,-17.938 -33.452,-24.185 -51.395,-13.873 -17.937,10.318 -24.185,33.453 -13.872,51.395 1.075,1.87 2.31,3.645 3.687,5.305l0.265 0.321 87.536 302.795 -0.2 0.593zm-82.098 -314.295c7.436,12.943 23.974,17.414 36.924,9.963 12.943,-7.436 17.413,-23.974 9.963,-36.923 -7.437,-12.943 -23.974,-17.414 -36.924,-9.964 -12.943,7.437 -17.414,23.974 -9.963,36.924zm4.611 -2.655c-5.974,-10.401 -2.388,-23.68 8.007,-29.658 10.401,-5.973 23.68,-2.387 29.658,8.008 5.974,10.4 2.387,23.68 -8.008,29.657 -10.4,5.974 -23.68,2.388 -29.657,-8.007zm1.739 -0.993c-5.417,-9.442 -2.173,-21.501 7.261,-26.925 9.442,-5.418 21.501,-2.174 26.925,7.26 5.418,9.443 2.174,21.501 -7.26,26.926 -9.442,5.417 -21.501,2.173 -26.926,-7.261zm-8.094 4.635c-7.988,-13.9 -3.187,-31.652 10.72,-39.655 13.9,-7.988 31.652,-3.186 39.655,10.72 7.988,13.9 3.187,31.653 -10.72,39.655 -13.9,7.988 -31.652,3.187 -39.655,-10.72z"/>
     <line id="rod_4_line" class="fil3" x1="866.776" y1="1145.48" x2="773.676" y2= "806.045" />
     <g id="piston_4">
      <polygon id="_97767136" class="fil0" points="927.59,1051.87 761.2,1111.92 807.887,1241.28 879.316,1233.15 914.123,1220.59 974.278,1181.22 "/>
      <path id="_97764808" class="fil5" d="M926.334 1054.54l33.352 92.406 -162.461 58.636 -33.352 -92.406 162.461 -58.636zm36.208 100.319l3.608 9.996 -162.461 58.637 -3.608 -9.996 162.461 -58.637zm6.464 17.91l2.747 7.61 -58.569 38.326 -34.347 12.397 -69.545 7.913 -2.747 -7.61 162.461 -58.636z"/>
      <path id="_97764184" class="fil0" d="M859.069 1124.18c-11.732,4.234 -17.809,17.175 -13.575,28.908 4.235,11.732 17.176,17.809 28.908,13.574 11.733,-4.234 17.81,-17.175 13.575,-28.908 -4.235,-11.732 -17.175,-17.809 -28.908,-13.574z"/>
      <path id="_97765240" class="fil6" d="M863.729 1137.09c-4.601,1.661 -6.984,6.735 -5.323,11.336 1.66,4.602 6.735,6.985 11.336,5.324 4.601,-1.661 6.984,-6.735 5.324,-11.336 -1.661,-4.602 -6.736,-6.985 -11.337,-5.324z"/>
      <path id="_97764352" class="fil4" d="M859.778 1126.15c10.648,-3.843 22.391,1.671 26.234,12.32 3.844,10.648 -1.671,22.391 -12.319,26.234 -10.648,3.843 -22.391,-1.671 -26.234,-12.32 -3.843,-10.648 1.671,-22.391 12.319,-26.234zm3.242 8.982c-5.685,2.053 -8.631,8.325 -6.579,14.011 2.052,5.685 8.325,8.631 14.01,6.579 5.686,-2.053 8.631,-8.325 6.579,-14.011 -2.052,-5.685 -8.324,-8.631 -14.01,-6.579z"/>
     </g>
    </g>
    <g id="rod_3">
     <path id="_97764400" class="fil0" d="M1062.61 996.311l-236.904 -206.32c-2.131,-0.672 -4.236,-1.531 -6.289,-2.589 -19.461,-10.04 -27.088,-33.952 -17.062,-53.403 10.04,-19.461 33.953,-27.088 53.404,-17.062 8.385,4.326 14.572,11.233 18.097,19.243l231.15 212.742c4.215,0.577 8.405,1.864 12.4,3.929 18.829,9.714 26.226,32.854 16.506,51.687 -9.708,18.834 -32.863,26.223 -51.696,16.503 -10.177,-5.251 -17.008,-14.431 -19.606,-24.73z"/>
     <path id="_97767928" class="fil4" d="M1064.54 995.821c2.56,10.145 9.277,18.641 18.584,23.443 17.768,9.171 39.838,2.134 49.001,-15.644 9.172,-17.77 2.125,-39.824 -15.646,-48.993 -3.681,-1.902 -7.647,-3.162 -11.753,-3.724l-0.621 -0.085 -231.92 -213.45 -0.168 -0.382c-3.473,-7.89 -9.523,-14.319 -17.184,-18.271 -18.394,-9.481 -41.221,-2.191 -50.709,16.2 -9.481,18.394 -2.191,41.222 16.201,50.71 1.917,0.989 3.917,1.81 5.974,2.459l0.397 0.126 237.69 207.004 0.154 0.607zm-239.354 -219.616c13.264,6.846 29.585,1.639 36.429,-11.642 6.845,-13.265 1.638,-29.585 -11.642,-36.429 -13.265,-6.846 -29.586,-1.638 -36.429,11.642 -6.846,13.265 -1.639,29.586 11.642,36.429zm2.435 -4.731c-10.657,-5.501 -14.842,-18.605 -9.347,-29.263 5.502,-10.657 18.605,-14.842 29.263,-9.346 10.658,5.502 14.842,18.605 9.347,29.263 -5.502,10.657 -18.605,14.842 -29.263,9.346zm0.924 -1.776c-9.671,-4.999 -13.481,-16.89 -8.494,-26.563 4.998,-9.671 16.89,-13.481 26.563,-8.493 9.67,4.998 13.481,16.89 8.493,26.562 -4.998,9.671 -16.89,13.481 -26.562,8.494zm-4.29 8.282c-14.247,-7.351 -19.835,-24.871 -12.486,-39.134 7.351,-14.248 24.871,-19.836 39.134,-12.487 14.248,7.351 19.835,24.872 12.487,39.134 -7.351,14.248 -24.872,19.836 -39.135,12.487z"/>
     <line id="rod_3_line" class="fil3" x1="1099.81" y1="986.945" x2="837.583" y2= "752.17" />
     <g id="piston_3">
      <polygon id="_97766248" class="fil0" points="1086.02,876.585 997.821,1029.19 1116.46,1097.76 1165.66,1045.7 1184.11,1013.77 1204.66,945.152 "/>
      <path id="_97764280" class="fil5" d="M1086.78 879.428l84.752 48.981 -86.115 149.004 -84.752 -48.981 86.115 -149.004zm92.01 53.176l9.168 5.298 -86.115 149.004 -9.168 -5.298 86.115 -149.004zm16.425 9.493l6.98 4.034 -20.007 66.811 -18.206 31.502 -47.901 50.69 -6.98 -4.033 86.114 -149.004z"/>
      <path id="_97766824" class="fil0" d="M1080.26 975.682c-6.219,10.761 -2.538,24.522 8.223,30.741 10.76,6.219 24.522,2.538 30.741,-8.222 6.219,-10.761 2.538,-24.522 -8.223,-30.741 -10.761,-6.219 -24.522,-2.539 -30.741,8.222z"/>
      <path id="_97765936" class="fil6" d="M1092.1 982.526c-2.439,4.22 -0.996,9.617 3.224,12.055 4.22,2.439 9.617,0.996 12.056,-3.224 2.439,-4.22 0.995,-9.617 -3.225,-12.055 -4.22,-2.439 -9.616,-0.996 -12.055,3.224z"/>
      <path id="_97766224" class="fil4" d="M1082.06 976.724c5.644,-9.767 18.132,-13.107 27.898,-7.462 9.766,5.644 13.106,18.131 7.462,27.897 -5.644,9.766 -18.132,13.107 -27.898,7.462 -9.766,-5.644 -13.106,-18.131 -7.462,-27.897zm8.238 4.761c-3.014,5.214 -1.23,11.885 3.985,14.898 5.215,3.014 11.885,1.23 14.899,-3.985 3.013,-5.214 1.229,-11.885 -3.985,-14.898 -5.215,-3.014 -11.885,-1.23 -14.899,3.985z"/>
     </g>
    </g>
    <g id="rod_2">
     <path id="_97767616" class="fil0" d="M1180.06 721.638l-313.803 -14.795c-2.089,0.795 -4.272,1.428 -6.538,1.872 -21.492,4.203 -42.311,-9.817 -46.518,-31.292 -4.202,-21.491 9.818,-42.31 31.292,-46.517 9.26,-1.811 18.397,-0.233 26.133,3.861l313.275 23.401c3.664,-2.163 7.748,-3.753 12.162,-4.613 20.794,-4.065 40.953,9.49 45.016,30.291 4.074,20.793 -9.498,40.956 -30.299,45.02 -11.239,2.197 -22.292,-0.764 -30.72,-7.228z"/>
     <path id="_97766152" class="fil4" d="M1181.28 720.051c8.303,6.367 18.842,8.861 29.121,6.852 19.624,-3.834 32.565,-23.047 28.719,-42.674 -3.834,-19.626 -23.045,-32.548 -42.67,-28.711 -4.067,0.792 -7.96,2.265 -11.527,4.372l-0.541 0.319 -314.319 -23.479 -0.368 -0.196c-7.619,-4.032 -16.353,-5.319 -24.814,-3.665 -20.307,3.978 -33.684,23.86 -29.713,44.17 3.979,20.307 23.86,33.685 44.17,29.713 2.117,-0.414 4.196,-1.01 6.211,-1.778l0.39 -0.148 314.845 14.844 0.496 0.381zm-323.975 -23.702c14.65,-2.862 24.218,-17.073 21.344,-31.734 -2.863,-14.65 -17.073,-24.217 -31.734,-21.343 -14.65,2.862 -24.218,17.073 -21.344,31.734 2.863,14.65 17.073,24.217 31.734,21.343zm-1.025 -5.221c-11.772,2.299 -23.184,-5.38 -25.488,-17.148 -2.299,-11.771 5.38,-23.184 17.148,-25.487 11.772,-2.299 23.184,5.38 25.488,17.148 2.298,11.771 -5.381,23.184 -17.148,25.487zm-0.379 -1.966c-10.685,2.081 -21.052,-4.88 -23.142,-15.56 -2.082,-10.685 4.88,-21.052 15.559,-23.143 10.686,-2.081 21.053,4.88 23.143,15.56 2.081,10.685 -4.88,21.052 -15.56,23.143zm1.776 9.157c-15.734,3.076 -30.988,-7.197 -34.075,-22.941 -3.076,-15.734 7.196,-30.988 22.941,-34.076 15.734,-3.076 30.988,7.197 34.075,22.941 3.076,15.735 -7.196,30.988 -22.941,34.076z"/>
     <line id="rod_2_line" class="fil3" x1="1203.43" y1="691.209" x2="852.11" y2= "669.811" />
     <g id="piston_2">
      <polygon id="_98097680" class="fil0" points="1121.64,615.156 1152.06,789.395 1287.52,765.75 1291.85,694 1285.48,657.552 1257.1,591.512 "/>
      <path id="_98095928" class="fil5" d="M1124.06 616.855l96.765 -16.891 29.696 170.124 -96.765 16.891 -29.696 -170.124zm105.052 -18.338l10.467 -1.827 29.696 170.124 -10.467 1.828 -29.696 -170.125zm18.754 -3.273l7.969 -1.391 27.633 64.299 6.278 35.967 -4.215 69.858 -7.969 1.391 -29.696 -170.124z"/>
      <path id="_98095592" class="fil0" d="M1181.03 695.126c2.144,12.286 13.84,20.505 26.126,18.36 12.286,-2.144 20.505,-13.84 18.36,-26.126 -2.144,-12.286 -13.84,-20.505 -26.126,-18.36 -12.286,2.144 -20.505,13.84 -18.36,26.126z"/>
      <path id="_98096696" class="fil6" d="M1194.55 692.765c0.841,4.819 5.427,8.042 10.246,7.201 4.818,-0.841 8.041,-5.428 7.2,-10.246 -0.841,-4.818 -5.428,-8.041 -10.246,-7.2 -4.818,0.841 -8.041,5.427 -7.2,10.245z"/>
      <path id="_98093888" class="fil4" d="M1183.09 694.766c-1.946,-11.15 5.512,-21.763 16.662,-23.709 11.151,-1.946 21.764,5.512 23.71,16.662 1.946,11.151 -5.512,21.763 -16.663,23.71 -11.15,1.946 -21.763,-5.512 -23.709,-16.663zm9.406 -1.641c1.039,5.953 6.708,9.937 12.662,8.898 5.953,-1.039 9.937,-6.708 8.898,-12.662 -1.039,-5.954 -6.708,-9.937 -12.662,-8.898 -5.954,1.039 -9.937,6.708 -8.898,12.662z"/>
     </g>
    </g>
    <g id="rod_1">
     <path id="_98096672" class="fil0" d="M1079.61 403.678l-233.465 210.203c-0.925,2.034 -2.032,4.02 -3.331,5.93 -12.32,18.103 -36.98,22.781 -55.075,10.476 -18.104,-12.321 -22.782,-36.981 -10.476,-55.076 5.309,-7.8 12.913,-13.106 21.291,-15.637l239.144 -203.714c1.082,-4.114 2.867,-8.117 5.4,-11.834 11.921,-17.515 35.786,-22.059 53.304,-10.131 17.521,11.915 22.056,35.794 10.129,53.313 -6.445,9.467 -16.383,15.137 -26.921,16.47z"/>
     <path id="_98097776" class="fil4" d="M1079.35 401.694c10.38,-1.314 19.626,-6.954 25.519,-15.612 11.253,-16.528 6.938,-39.287 -9.601,-50.534 -16.529,-11.254 -39.274,-6.927 -50.525,9.605 -2.334,3.423 -4.065,7.208 -5.119,11.216l-0.16 0.606 -239.94 204.393 -0.4 0.121c-8.251,2.493 -15.365,7.721 -20.215,14.847 -11.637,17.112 -7.162,40.653 9.947,52.297 17.112,11.636 40.653,7.161 52.297,-9.947 1.213,-1.784 2.271,-3.67 3.163,-5.633l0.173 -0.379 234.24 -210.901 0.621 -0.079zm-246.96 211.027c8.4,-12.339 5.206,-29.17 -7.149,-37.57 -12.339,-8.4 -29.17,-5.206 -37.57,7.149 -8.4,12.34 -5.206,29.17 7.149,37.57 12.339,8.4 29.17,5.206 37.57,-7.149zm-4.401 -2.99c-6.751,9.914 -20.264,12.482 -30.179,5.738 -9.914,-6.751 -12.482,-20.264 -5.738,-30.179 6.751,-9.913 20.264,-12.482 30.179,-5.738 9.914,6.751 12.482,20.264 5.738,30.179zm-1.652 -1.132c-6.132,8.995 -18.397,11.339 -27.395,5.218 -8.995,-6.131 -11.339,-18.397 -5.218,-27.395 6.132,-8.995 18.397,-11.339 27.395,-5.217 8.995,6.131 11.339,18.396 5.218,27.394zm7.703 5.26c-9.021,13.254 -27.089,16.681 -40.358,7.661 -13.253,-9.021 -16.681,-27.089 -7.66,-40.358 9.02,-13.253 27.088,-16.68 40.357,-7.66 13.254,9.02 16.681,27.088 7.661,40.357z"/>
     <line id="rod_1_line" class="fil3" x1="1074.81" y1="365.616" x2="810.035" y2= "597.511" />
     <g id="piston_1">
      <polygon id="_98096240" class="fil0" points="962.778,360.15 1098.96,474.133 1187.58,368.259 1144.43,310.406 1115.94,286.562 1051.39,254.276 "/>
      <path id="_98096360" class="fil5" d="M965.732 359.888l63.301 -75.632 132.969 111.291 -63.301 75.632 -132.969 -111.291zm68.722 -82.109l6.848 -8.181 132.968 111.291 -6.847 8.182 -132.969 -111.292zm12.269 -14.658l5.213 -6.228 62.845 31.434 28.112 23.529 42.011 56.328 -5.213 6.228 -132.968 -111.291z"/>
      <path id="_98096120" class="fil0" d="M1060.14 383.04c9.603,8.037 23.899,6.768 31.936,-2.834 8.037,-9.603 6.769,-23.899 -2.834,-31.937 -9.603,-8.037 -23.899,-6.768 -31.937,2.835 -8.037,9.602 -6.768,23.899 2.835,31.936z"/>
      <path id="_98096768" class="fil6" d="M1068.98 372.472c3.765,3.152 9.372,2.655 12.524,-1.111 3.151,-3.766 2.654,-9.372 -1.112,-12.524 -3.766,-3.152 -9.372,-2.654 -12.524,1.111 -3.152,3.766 -2.654,9.373 1.112,12.524z"/>
      <path id="_98093864" class="fil4" d="M1061.48 381.432c-8.716,-7.294 -9.867,-20.267 -2.573,-28.983 7.295,-8.715 20.268,-9.866 28.983,-2.572 8.715,7.295 9.866,20.268 2.572,28.983 -7.294,8.715 -20.267,9.866 -28.982,2.572zm6.153 -7.352c4.653,3.895 11.583,3.28 15.478,-1.373 3.894,-4.654 3.279,-11.583 -1.374,-15.478 -4.654,-3.895 -11.583,-3.28 -15.478,1.374 -3.895,4.653 -3.28,11.583 1.374,15.477z"/>
     </g>
    </g>
    <g id="piston_m">
     <polygon id="_98095808" class="fil0" points="642.446,279.673 819.942,279.737 819.992,141.746 749.815,125.06 712.684,125.046 642.495,141.682 "/>
     <path id="_98095832" class="fil5" d="M644.542 277.578l0.036 -98.574 173.305 0.062 -0.036 98.574 -173.305 -0.062zm0.039 -107.016l0.004 -10.663 173.304 0.062 -0.003 10.664 -173.305 -0.063zm0.007 -19.104l0.002 -8.118 68.339 -16.198 36.64 0.013 68.326 16.247 -0.003 8.118 -173.304 -0.062z"/>
     <path id="_98096264" class="fil0" d="M731.765 234.794c12.516,0.005 22.663,-10.135 22.668,-22.651 0.004,-12.515 -10.136,-22.662 -22.651,-22.667 -12.516,-0.004 -22.663,10.135 -22.668,22.651 -0.004,12.516 10.136,22.663 22.651,22.667z"/>
     <path id="_98095280" class="fil6" d="M731.77 221.021c4.909,0.002 8.888,-3.974 8.89,-8.882 0.001,-4.909 -3.975,-8.888 -8.883,-8.89 -4.908,-0.001 -8.888,3.975 -8.889,8.883 -0.002,4.908 3.974,8.888 8.882,8.889z"/>
     <path id="_98094224" class="fil4" d="M731.766 232.699c-11.359,-0.004 -20.56,-9.212 -20.556,-20.571 0.004,-11.359 9.212,-20.56 20.571,-20.556 11.359,0.004 20.56,9.212 20.556,20.571 -0.004,11.359 -9.212,20.56 -20.571,20.556zm0.004 -9.582c6.065,0.002 10.983,-4.913 10.985,-10.978 0.002,-6.065 -4.912,-10.983 -10.977,-10.985 -6.066,-0.002 -10.984,4.912 -10.986,10.977 -0.002,6.065 4.913,10.984 10.978,10.986z"/>
    </g>
   </g>
  </g>
  <g id="_98095448">
   <g>
    <polygon id="_98095880" class="fil0" points="634.043,462.683 634.043,103.097 707.77,68.083 753.704,68.083 827.431,103.097 827.431,462.683 815.431,450.683 815.431,110.683 750.999,80.083 710.475,80.083 646.043,110.683 646.043,450.683 "/>
    <polygon id="_98096552" class="fil1" points="636.043,457.855 636.043,104.361 708.221,70.083 753.253,70.083 825.431,104.361 825.431,457.855 817.431,449.855 817.431,109.419 751.45,78.083 710.024,78.083 644.043,109.419 644.043,449.855 "/>
   </g>
   <g>
    <polygon id="_98094392" class="fil0" points="456.547,598.378 225.409,322.92 259.381,248.706 294.569,219.181 373.553,198.612 604.691,474.071 587.785,472.592 369.237,212.137 300.21,230.112 269.167,256.16 239.478,321.017 458.026,581.472 "/>
    <polygon id="_98095328" class="fil1" points="454.976,593.394 227.754,322.602 261.012,249.949 295.509,221.003 372.834,200.866 600.055,471.658 588.785,470.672 369.957,209.883 299.27,228.29 267.536,254.918 237.134,321.335 455.962,582.124 "/>
   </g>
   <g>
    <polygon id="_98094632" class="fil0" points="407.8,816.419 53.677,753.978 31.998,675.291 39.974,630.055 87.259,563.528 441.382,625.969 427.48,635.703 92.646,576.663 51.322,634.802 44.285,674.711 63.232,743.478 398.066,802.518 "/>
    <polygon id="_98094752" class="fil1" points="403.393,813.611 55.269,752.228 34.046,675.194 41.865,630.846 88.156,565.717 436.28,627.101 427.012,633.59 91.748,574.474 49.431,634.011 42.237,674.808 61.64,745.228 396.904,804.344 "/>
   </g>
   <g>
    <polygon id="_98097800" class="fil0" points="510.612,1014.78 199.202,1194.58 132.015,1148.23 109.048,1108.45 102.508,1027.1 413.918,847.303 409.526,863.696 115.077,1033.7 120.793,1104.8 141.055,1139.89 199.771,1180.39 494.22,1010.39 "/>
    <polygon id="_98095304" class="fil1" points="505.431,1015.46 199.296,1192.21 133.522,1146.84 111.006,1107.84 104.602,1028.2 410.737,851.449 407.809,862.378 112.983,1032.6 118.835,1105.41 139.548,1141.28 199.677,1182.75 494.503,1012.54 "/>
   </g>
   <g>
    <polygon id="_98093960" class="fil0" points="716.876,1100.65 593.89,1438.55 512.634,1446.24 469.47,1430.53 412.165,1372.41 535.151,1034.51 542.323,1049.89 426.036,1369.38 476.116,1420.18 514.197,1434.04 585.209,1427.32 701.496,1107.82 "/>
    <polygon id="_98096048" class="fil1" points="713.345,1104.5 592.443,1436.68 512.894,1444.2 470.578,1428.8 414.477,1371.91 535.379,1039.73 540.16,1049.98 423.724,1369.89 475.009,1421.9 513.936,1436.07 586.656,1429.19 703.092,1109.29 "/>
   </g>
   <g>
    <polygon id="_98096168" class="fil0" points="930.078,1033.85 1053.06,1371.75 995.759,1429.87 952.595,1445.58 871.339,1437.89 748.353,1099.99 763.734,1107.16 880.021,1426.66 951.033,1433.37 989.113,1419.51 1039.19,1368.72 922.906,1049.23 "/>
    <polygon id="_98095184" class="fil1" points="929.85,1039.07 1050.75,1371.24 994.651,1428.14 952.335,1443.54 872.786,1436.02 751.884,1103.84 762.138,1108.62 878.573,1428.53 951.293,1435.41 990.221,1421.24 1041.51,1369.23 925.069,1049.32 "/>
   </g>
   <g>
    <polygon id="_98094560" class="fil0" points="1050.46,845.627 1361.87,1025.42 1355.33,1106.78 1332.36,1146.56 1265.18,1192.9 953.766,1013.11 970.158,1008.71 1264.61,1178.71 1323.32,1138.21 1343.59,1103.12 1349.3,1032.02 1054.85,862.019 "/>
    <polygon id="_98094248" class="fil1" points="1053.64,849.773 1359.78,1026.52 1353.37,1106.17 1330.86,1145.17 1265.08,1190.54 958.947,1013.79 969.875,1010.86 1264.7,1181.08 1324.83,1139.6 1345.54,1103.73 1351.4,1030.92 1056.57,860.701 "/>
   </g>
   <g>
    <polygon id="_98094104" class="fil0" points="1021.69,624.063 1375.82,561.621 1423.1,628.148 1431.08,673.384 1409.4,752.071 1055.27,814.513 1065.01,800.611 1399.84,741.571 1418.79,672.804 1411.75,632.896 1370.43,574.756 1035.59,633.797 "/>
    <polygon id="_98096984" class="fil1" points="1026.79,625.194 1374.92,563.811 1421.21,628.94 1429.03,673.288 1407.8,750.321 1059.68,811.705 1066.17,802.437 1401.43,743.321 1420.84,672.901 1413.64,632.104 1371.33,572.567 1036.06,631.683 "/>
   </g>
   <g>
    <polygon id="_98097320" class="fil0" points="857.236,472.827 1088.37,197.368 1167.36,217.936 1202.55,247.462 1236.52,321.675 1005.38,597.134 1003.9,580.228 1222.45,319.773 1192.76,254.916 1161.72,228.868 1092.69,210.892 874.142,471.347 "/>
    <polygon id="_98097128" class="fil1" points="861.872,470.414 1089.09,199.622 1166.42,219.758 1200.92,248.704 1234.17,321.358 1006.95,592.15 1005.97,580.879 1224.79,320.09 1194.39,253.674 1162.66,227.046 1091.97,208.639 873.142,469.428 "/>
   </g>
  </g>
  <line id="center" class="fil3 str0" x1="731.267" y1="773.842" x2="731.267" y2= "773.842" />
 </g>
</svg>
