<?xml version="1.0" encoding="UTF-8"?>
<!DOCTYPE svg PUBLIC "-//W3C//DTD SVG 1.1//EN" "http://www.w3.org/Graphics/SVG/1.1/DTD/svg11.dtd">
<!-- Creator: CorelDRAW -->
<svg xmlns="http://www.w3.org/2000/svg" xml:space="preserve" width="100%" height="100%" style="shape-rendering:geometricPrecision; text-rendering:geometricPrecision; image-rendering:optimizeQuality; fill-rule:evenodd; clip-rule:evenodd"
viewBox="0 0 2100 2100"
 xmlns:xlink="http://www.w3.org/1999/xlink">
 <defs>
  <style type="text/css">
   <![CDATA[
    .fil8 {fill:none}
    .fil0 {fill:black}
    .fil3 {fill:#666666}
    .fil7 {fill:#B2B2B2}
    .fil2 {fill:#CCCCCC}
    .fil1 {fill:#E5E5E5}
    .fil5 {fill:white}
    .fil9 {fill:#CC5252}
    .fil4 {fill:#FFE5B2}
    .fil6 {fill:#FFBF40}
   ]]>
  </style>
  <script type="text/javascript" xlink:href="rotary_engine.js" />  
 </defs>
 <g id="圖層_x0020_2">
  <metadata id="CorelCorpID_0Corel-Layer"/>
  <path class="fil0" d="M1686.6 336.556c37.099,6.814 74.2,13.622 111.327,20.279 30.534,5.475 61.109,10.906 91.734,15.854 62.781,10.141 48.738,88.653 35.722,131.947 -13.965,46.452 -24.951,94.448 -34.121,142.067 -7.143,37.095 -13.215,74.531 -17.744,112.037 -3.72,30.809 -6.704,62.661 -6.704,93.712 0,51.032 -4.255,101.956 -4.255,152.985 0,69.944 4.255,139.809 4.255,209.754 0,33.878 -2.041,67.747 -6.145,101.375 -0.889,7.286 -1.837,14.499 -2.508,21.816 -1.07,11.653 -1.6,23.354 -1.558,35.055 0.122,33.825 4.99,67.463 14.507,99.926 22.345,76.219 71.653,144.266 133.222,193.773 29.78,23.947 55.944,87.77 55.964,125.695 0.007,11.816 0.013,23.632 0.012,35.448 -0.004,47.015 0.01,94.125 -1.075,141.127 -0.391,16.949 -0.882,34.009 -2.052,50.923 -0.395,5.718 -0.864,11.483 -1.622,17.165 -0.444,3.333 -1.024,7.403 -2.183,10.565l-0.465 1.267 -140.92 4.487 1.953 -27.49 1.003 -0.514c9.417,-4.822 20.552,-11.494 26.825,-20.281 3.999,-5.602 5.053,-10.589 6.936,-16.976 2.088,-7.086 2.13,-13.946 0.211,-21.067 -3.202,-11.882 -11.367,-22.937 -17.401,-33.588 -2.957,-5.221 -5.629,-10.612 -7.472,-16.336 -0.825,-2.565 -1.455,-5.19 -1.894,-7.848 -5.293,-32.06 16.858,-66.84 49.259,-73.124 29.205,-5.664 31.374,-25.502 23.961,-50.828 -14.463,-49.402 -38.552,-89.751 -80.766,-119.926 -14.906,-10.656 -30.754,-19.14 -47.026,-27.46 -13.637,-6.973 -28.181,-14.018 -40.55,-23.079 -14.388,-10.54 -42.091,-28.751 -58.177,-11.233 -1.01,1.099 -1.931,2.278 -2.778,3.506 -2.672,3.874 -4.63,8.239 -6.382,12.591 -1.388,3.443 -2.758,7.573 -4.608,10.756 -35.708,61.434 -79.245,118.174 -129.296,168.61 -155.951,157.152 -366.121,245.189 -587.705,244.388 -132.506,-0.479 -261.218,-35.776 -378.885,-95.771 -26.15,-13.333 -59.826,-19.077 -82.423,4.323 -21.682,22.452 -59.171,41.398 -90.944,35.556 -20.845,-3.833 -40.247,-15.675 -54.887,-30.777 -10.972,-11.318 -23.067,-28.896 -23.816,-45.182 -1.006,-21.873 -9.607,-38.111 -33.326,-38.557l-100.221 -1.886c-16.373,-0.308 -35.311,7.145 -36.191,25.888 -0.663,14.122 -1.779,35.764 -12.801,46.094 -11.056,10.362 -10.165,34.134 -10.088,48.142 0.094,17.276 -9.055,32.443 -27.158,34.451 -13.48,1.495 -15.528,10.11 -15.871,21.501l-0.058 1.936 -147.187 0.291 0.014 -2.018c0.098,-14.208 0.173,-30.174 6.983,-43.029 7.88,-14.877 25.336,-49.234 44.43,-49.911 22.129,-0.784 63.28,-0.79 79.026,-18.34 9.265,-10.324 19.739,-24.153 20.969,-38.38l0.161 -1.859 16.003 0.271 0.135 -47.045c0.02,-6.779 -0.435,-13.331 -8.755,-12.84l-2.122 0.125 1.066 -639.185 1.719 -0.242c9.337,-1.312 20.569,-4.196 24.768,-13.662 3.59,-8.096 1.859,-21.043 2.236,-29.968 3.082,-72.86 9.616,-147.251 2.484,-219.993 -2.653,-27.045 -3.977,-54.22 -3.977,-81.395 0,-457.548 371.175,-828.723 828.723,-828.723 253.421,0 490.879,114.966 648.509,312.827z"/>
  <path class="fil1" d="M215.33 933.652c-2.646,-26.98 -3.967,-54.09 -3.967,-81.2 0,-456.444 370.279,-826.723 826.723,-826.723 262.179,0 495.931,122.169 647.411,312.659 76.928,14.13 153.983,28.221 203.84,36.275 54.896,8.868 51.11,72.903 34.126,129.397 -31.84,105.911 -58.654,261.863 -58.654,348.392 0,51.085 -4.255,102.018 -4.255,152.985 0,69.92 4.255,139.787 4.255,209.754 0,34.235 -2.085,67.988 -6.13,101.133 -2.334,19.13 -12.05,80.657 10.507,157.602 19.289,65.794 62.732,137.553 133.888,194.769 27.87,22.411 55.196,84.718 55.217,124.137 0.062,111.629 0.155,235.58 -6.798,254.538l-137.355 4.373 1.716 -24.154c30.361,-15.546 31.492,-27.361 34.767,-38.472 8.359,-28.358 -16.508,-46.793 -24.676,-72.169 -10.212,-31.727 11.048,-71.648 45.842,-78.396 29.339,-5.69 33.692,-25.364 25.499,-53.353 -37.21,-127.107 -123.822,-138.364 -169.079,-171.516 -62.098,-45.49 -67.49,3.556 -74.856,16.228 -143.173,246.321 -409.947,413.107 -715.265,412.003 -134.246,-0.485 -262.549,-36.696 -377.984,-95.553 -14.76,-7.526 -56.401,-24.661 -84.77,4.716 -21.681,22.451 -58.54,40.605 -89.143,34.978 -41.938,-7.711 -75.873,-48.133 -77.067,-74.084 -1.173,-25.513 -12.453,-40.035 -35.286,-40.465l-100.221 -1.886c-18.985,-0.357 -37.338,8.864 -38.227,27.794 -0.167,3.557 -0.12,33.435 -12.171,44.729 -11.051,10.357 -10.82,31.381 -10.72,49.612 0.099,18.204 -9.916,30.737 -25.378,32.452 -16.437,1.823 -17.374,14.258 -17.65,23.429l-143.232 0.283c0.07,-10.145 -0.336,-28.73 6.75,-42.107 8.743,-16.506 25.354,-48.232 42.734,-48.848 24.1,-0.854 64.292,-1.001 80.444,-19.003 9.877,-11.007 20.215,-25.003 21.473,-39.544l16.165 0.274 0.141 -49.073c0.028,-9.722 -2.16,-15.357 -10.873,-14.843l1.059 -635.324c34.85,-4.897 27.853,-24.923 28.724,-45.526 3.113,-73.586 9.469,-148.956 2.476,-220.273zm49.623 676.324l0.425 166.778c0.053,20.629 12.064,36.169 32.764,36.169l116.99 0c15.622,0 20.945,-20.562 10.227,-31.923 -46.315,-49.094 -86.7,-106.494 -121.679,-171.454 -7.024,-13.046 -38.765,-14.386 -38.727,0.43zm3.697 -466.001c2.652,-54.61 5.995,-109.73 4.462,-163.943 -0.528,-18.664 14.393,-20.69 29.276,-15.876 6.554,2.119 13.547,3.266 20.805,3.266 15.183,0 29.203,-5.013 40.491,-13.473 11.665,-8.743 26.174,-9.624 26.852,8.076 2.565,66.906 -2.722,132.431 -5.096,198.854 -0.824,23.11 -14.34,22.571 -30.118,13.399 -9.943,-5.779 -21.382,-9.088 -33.44,-9.088 -7.144,0 -14.031,1.11 -20.496,3.166 -27.249,8.669 -34.166,5.064 -32.736,-24.381zm145.122 524.769c-64.915,-89.167 -111.203,-192.762 -133.114,-305.055 -5.365,-27.497 8.601,-63.299 41.224,-63.299 17.355,0 33.687,-6.812 45.941,-18.137 11.496,-10.637 19.506,-3.774 20.91,8.454 13.334,115.85 56.977,222.489 122.781,311.801 6.833,9.275 0.678,17.482 -9.922,17.482 -28.571,0 -53.019,17.751 -62.908,42.819 -4.888,12.388 -15.313,19.119 -24.912,5.935zm168.262 168.948c-22.595,-16.591 -44.257,-34.385 -64.886,-53.282 -20.327,-18.62 -1.393,-28.114 15.211,-36.619 16.737,-8.575 29.437,-23.929 34.469,-42.429 3.907,-14.368 18.035,-18.912 29.051,-8.787 19.551,17.972 40.204,34.771 61.839,50.278 8.637,6.189 3.801,21.779 -3.503,24.853 -19.001,7.998 -33.591,24.437 -39.061,44.612 -4.311,15.903 -11.141,37.51 -33.12,21.374zm290.111 131.294c-50.291,-11.027 -98.752,-26.963 -144.848,-47.276 -22.737,-10.019 -14.608,-25.126 -0.362,-38.649 12.974,-12.317 21.069,-29.728 21.069,-49.019 0,-17.733 11.372,-27.146 28.04,-19.843 40.39,17.701 82.914,31.438 127.075,40.715 15.308,3.215 25.168,11.13 12.686,24.484 -11.292,12.082 -18.208,28.307 -18.208,46.139 0,28.538 10.783,51.392 -25.452,43.449zm319.062 2.712c-46.672,9.408 -94.87,14.605 -144.176,15.165 -2.977,0.033 -5.96,0.051 -8.945,0.051 -24.556,0 -19.574,-15.471 -11.425,-33.214 3.938,-8.574 6.136,-18.114 6.136,-28.163 0,-8.591 -1.606,-16.81 -4.531,-24.372 -6.717,-17.358 -14.007,-32.251 9.82,-32.251 44.06,0 87.108,-4.365 128.726,-12.683 15.94,-3.186 24.378,1.179 18.468,18.322 -2.379,6.903 -3.674,14.316 -3.674,22.024 0,14.324 4.464,27.614 12.072,38.548 11.228,16.136 22.047,31.631 -2.471,36.573zm270.333 -111.365c-34.177,22.486 -70.248,42.332 -107.917,59.243 -26.198,11.761 -36.817,5.608 -36.817,-22.999 0,-21.904 -10.434,-41.387 -26.599,-53.741 -12.439,-9.506 -8.584,-20.67 4.786,-26.392 38.262,-16.375 74.649,-36.298 108.744,-59.353 12.387,-8.376 18.907,-1.014 18.907,13.371 0,25.073 13.67,46.971 33.958,58.64 13.169,7.573 21.029,20.644 4.938,31.231zm209.922 -204.306c-24.734,35.472 -52.37,68.773 -82.563,99.553 -16.937,17.267 -28.015,6.255 -37.428,-13.796 -8.37,-17.829 -24.302,-31.414 -43.654,-36.613 -10.886,-2.924 -20.509,-14.954 -10.273,-25.066 28.182,-27.845 53.853,-58.231 76.627,-90.787 12.202,-17.445 20.756,-17.691 30.714,1.719 9.245,18.02 26.431,31.205 47.763,34.912 14.855,2.582 29.227,15.144 18.814,30.078zm99.749 -199.407c-5.746,17.459 -12.099,34.646 -19.032,51.53 -10.555,25.7 -23.421,19.299 -39.484,3.327 -12.224,-12.155 -29.068,-19.67 -47.658,-19.67 -19.269,0 -31.724,-5.088 -22.759,-26.727 12.171,-29.372 22.265,-59.824 30.094,-91.17 4.53,-18.136 12.263,-7.602 18.927,0.536 8.929,10.902 21.197,18.969 35.236,22.626 27.717,7.222 55.619,26.297 44.676,59.548zm38.598 -604.168c0,32.327 -14.284,73.127 -54.001,73.127 -37.318,0 -56.125,30.282 -56.125,67.6 0,37.318 18.807,67.6 56.125,67.6 28.97,0 51.468,35.806 52.291,63.358 0.907,30.341 1.71,60.689 1.71,91.054 0,21.827 -45.492,48.861 -66.191,48.861 -12.595,0 -24.39,3.449 -34.486,9.455 -10.019,5.959 -20.37,6.629 -19.233,-8.282 1.26,-16.513 1.91,-33.198 1.91,-50.034 0,-69.809 -4.255,-139.802 -4.255,-209.754 0,-51.048 4.255,-102.073 4.255,-152.985 0,-33.02 -2.468,-65.465 -7.203,-97.169 -1.44,-9.648 2.093,-19.887 11.547,-12.783 11.296,8.486 25.336,13.517 40.543,13.517 47.657,0 73.113,51.367 73.113,96.435zm-89.709 -361.312c9.925,18.696 19.103,37.852 27.493,57.422 12.968,30.249 -7.037,66.306 -34.394,76.456 -16.063,5.96 -29.251,17.857 -36.896,33.02 -5.901,11.705 -9.988,12.691 -14.203,-0.792 -12.632,-40.408 -29.083,-79.131 -48.925,-115.746 -10.934,-20.176 -0.736,-23.763 17.997,-23.763 22.07,0 41.68,-10.592 54.018,-26.966 11.057,-14.674 25.92,-16.568 34.91,0.369zm-184.485 -228.542c29.303,24.751 56.735,51.653 82.055,80.45 14.116,16.056 23.198,35.459 -1.76,41.221 -17.327,4 -34.664,18.073 -46.605,27.886 -14.399,11.833 -39.103,9.74 -50.921,-3.058 -14.003,-15.163 -28.718,-29.664 -44.087,-43.447 -19.663,-17.633 -1.769,-43.859 17.119,-70.415 4.419,-6.212 7.815,-13.205 9.939,-20.725 5.48,-19.404 18.923,-24.868 34.26,-11.912zm-327.114 -162.916c60.881,13.733 119.04,34.668 173.53,61.855 11.717,5.845 25.923,13.769 26.595,20.474 1.121,11.175 -18.721,21.994 -28.407,36.345 -20.979,31.084 -32.24,57.032 -68.607,40.247 -35.578,-16.422 -72.884,-29.742 -111.567,-39.608 -6.735,-1.718 -16.082,-8.225 -19.491,-22.257 -3.409,-14.032 -0.884,-35.595 4.214,-60.62 4.097,-20.114 -0.35,-41.868 23.733,-36.436zm-297.483 -8.53c41.34,-6.859 83.791,-10.423 127.068,-10.423 42.007,0 11.482,21.206 11.482,55.389 0,31.2 15.563,62.611 -11.482,62.611 -33.929,0 -67.255,2.594 -99.791,7.585 -29.846,4.578 -33.166,-21.896 -33.166,-44.187 0,-12.075 -3.173,-23.413 -8.727,-33.226 -11.884,-20.995 -7.37,-34.102 14.616,-37.749zm-279.418 105.307c36.745,-22.821 75.55,-42.638 116.064,-59.115 24.564,-9.991 22.265,3.918 22.265,24.783 0,14.577 4.621,28.083 12.476,39.126 12.061,16.957 30.155,36.538 -1.244,49.974 -32.125,13.747 -62.927,29.999 -92.161,48.503 -12.273,7.768 -26.116,2.609 -26.116,-12.904 0,-25.544 -14.191,-47.794 -35.115,-59.288 -15.743,-8.649 -10.216,-22.357 3.831,-31.079zm-364.3 617.667c9.894,-202.098 97.619,-383.787 233.794,-515.776 18.31,-17.747 24.008,-10.883 29.155,6.977 5.284,18.335 18.331,33.43 35.411,41.85 21.037,10.372 25.334,27.747 7.288,46.021 -111.126,112.523 -181.739,265.159 -188.113,434.198 -0.762,20.244 -13.22,22.02 -28.781,13.344 -9.728,-5.424 -20.937,-8.518 -32.861,-8.518 -7.432,0 -14.586,1.202 -21.275,3.421 -23.54,7.808 -36.095,8.679 -34.618,-21.517zm1469.4 -165.309c21.864,0 39.6,17.736 39.6,39.6 0,21.864 -17.736,39.6 -39.6,39.6 -21.864,0 -39.6,-17.736 -39.6,-39.6 0,-21.864 17.736,-39.6 39.6,-39.6zm-105.524 -238.28c21.864,0 39.6,17.736 39.6,39.6 0,21.864 -17.736,39.6 -39.6,39.6 -21.864,0 -39.6,-17.736 -39.6,-39.6 0,-21.864 17.736,-39.6 39.6,-39.6zm-194.879 -194.028c21.864,0 39.6,17.736 39.6,39.6 0,21.864 -17.736,39.6 -39.6,39.6 -21.864,0 -39.6,-17.736 -39.6,-39.6 0,-21.864 17.736,-39.6 39.6,-39.6zm53.951 1514.35c21.864,0 39.6,17.736 39.6,39.6 0,21.864 -17.736,39.6 -39.6,39.6 -21.864,0 -39.6,-17.736 -39.6,-39.6 0,-21.864 17.736,-39.6 39.6,-39.6zm-652.715 -1608.34c21.864,0 39.6,17.736 39.6,39.6 0,21.864 -17.736,39.6 -39.6,39.6 -21.864,0 -39.6,-17.736 -39.6,-39.6 0,-21.864 17.736,-39.6 39.6,-39.6zm-242.245 124.699c21.864,0 39.6,17.736 39.6,39.6 0,21.864 -17.736,39.6 -39.6,39.6 -21.864,0 -39.6,-17.736 -39.6,-39.6 0,-21.864 17.736,-39.6 39.6,-39.6zm-272.091 612.996c21.864,0 39.6,17.736 39.6,39.6 0,21.864 -17.736,39.6 -39.6,39.6 -21.864,0 -39.6,-17.736 -39.6,-39.6 0,-21.864 17.736,-39.6 39.6,-39.6zm-1.311 332.968c21.864,0 39.6,17.736 39.6,39.6 0,21.864 -17.736,39.6 -39.6,39.6 -21.864,0 -39.6,-17.736 -39.6,-39.6 0,-21.864 17.736,-39.6 39.6,-39.6zm179.71 454.8c21.864,0 39.6,17.736 39.6,39.6 0,21.864 -17.736,39.6 -39.6,39.6 -21.864,0 -39.6,-17.736 -39.6,-39.6 0,-21.864 17.736,-39.6 39.6,-39.6zm178.812 146.452c21.864,0 39.6,17.736 39.6,39.6 0,21.864 -17.736,39.6 -39.6,39.6 -21.864,0 -39.6,-17.736 -39.6,-39.6 0,-21.864 17.736,-39.6 39.6,-39.6zm284.793 91.495c21.864,0 39.6,17.736 39.6,39.6 0,21.864 -17.736,39.6 -39.6,39.6 -21.864,0 -39.6,-17.736 -39.6,-39.6 0,-21.864 17.736,-39.6 39.6,-39.6zm284.009 -28.96c21.864,0 39.6,17.736 39.6,39.6 0,21.864 -17.736,39.6 -39.6,39.6 -21.864,0 -39.6,-17.736 -39.6,-39.6 0,-21.864 17.736,-39.6 39.6,-39.6zm415.831 -337.17c21.864,0 39.6,17.736 39.6,39.6 0,21.864 -17.736,39.6 -39.6,39.6 -21.864,0 -39.6,-17.736 -39.6,-39.6 0,-21.864 17.736,-39.6 39.6,-39.6zm78.581 -227.755c21.864,0 39.6,17.736 39.6,39.6 0,21.864 -17.736,39.6 -39.6,39.6 -21.864,0 -39.6,-17.736 -39.6,-39.6 0,-21.864 17.736,-39.6 39.6,-39.6zm12.19 -338.473c21.864,0 39.6,17.736 39.6,39.6 0,21.864 -17.736,39.6 -39.6,39.6 -21.864,0 -39.6,-17.736 -39.6,-39.6 0,-21.864 17.736,-39.6 39.6,-39.6zm-638.64 -857.061c21.864,0 39.6,17.736 39.6,39.6 0,21.864 -17.736,39.6 -39.6,39.6 -21.864,0 -39.6,-17.736 -39.6,-39.6 0,-21.864 17.736,-39.6 39.6,-39.6zm871.104 1767.31c21.864,0 39.6,17.736 39.6,39.6 0,21.864 -17.736,39.6 -39.6,39.6 -21.864,0 -39.6,-17.736 -39.6,-39.6 0,-21.864 17.736,-39.6 39.6,-39.6zm-148.197 -1475c39.827,0 72.125,32.298 72.125,72.125 0,39.827 -32.298,72.125 -72.125,72.125 -39.827,0 -72.125,-32.298 -72.125,-72.125 0,-39.827 32.298,-72.125 72.125,-72.125zm-1339.18 1453.08c25.746,0 46.625,20.879 46.625,46.625 0,25.746 -20.879,46.625 -46.625,46.625 -25.746,0 -46.625,-20.879 -46.625,-46.625 0,-25.746 20.879,-46.625 46.625,-46.625zm-43.404 -676.821c3.714,-43.459 6.811,-86.776 7.203,-130.415 0.374,-41.776 -2.459,-83.277 -6.534,-124.828 -1.87,-19.068 -2.802,-38.225 -2.802,-57.384 0,-321.775 260.948,-582.723 582.723,-582.723 321.775,0 582.723,260.948 582.723,582.723 0,23.044 -1.348,46.083 -4.055,68.968 -4.462,37.718 -5.58,75.293 -5.136,113.239 0.472,40.281 1.962,80.147 6.097,120.243 2.065,20.027 3.094,40.156 3.094,60.289 0,321.775 -260.948,582.723 -582.723,582.723 -321.775,0 -582.723,-260.948 -582.723,-582.723 0,-16.725 0.709,-33.448 2.133,-50.112z"/>
  <path class="fil2" d="M410.394 914.521c9.889,100.838 -3.031,200.003 -3.031,300.67 0,348.266 282.457,630.723 630.723,630.723 348.266,0 630.723,-282.457 630.723,-630.723 0,-69.94 -4.255,-139.806 -4.255,-209.754 0,-51.039 4.255,-101.964 4.255,-152.985 0,-348.266 -282.457,-630.723 -630.723,-630.723 -348.266,0 -630.723,282.457 -630.723,630.723 0,20.723 1.008,41.445 3.031,62.069zm24.881 -2.44c10.005,102.029 -2.912,201.411 -2.912,303.11 0,334.467 271.256,605.723 605.723,605.723 334.467,0 605.723,-271.256 605.723,-605.723 0,-69.937 -4.255,-139.803 -4.255,-209.754 0,-51.048 4.255,-101.973 4.255,-152.985 0,-334.467 -271.256,-605.723 -605.723,-605.723 -334.467,0 -605.723,271.256 -605.723,605.723 0,19.908 0.969,39.816 2.912,59.629zm-200.04 19.619c-2.583,-26.331 -3.872,-52.79 -3.872,-79.248 0,-445.405 361.318,-806.723 806.723,-806.723 445.404,0 806.723,361.319 806.723,806.723 0,51.081 -4.255,102.01 -4.255,152.985 0,69.923 4.255,139.79 4.255,209.754 0,445.405 -361.318,806.723 -806.723,806.723 -445.405,0 -806.723,-361.318 -806.723,-806.723 0,-93.201 12.921,-191.213 3.872,-283.491zm19.904 -1.952c-2.519,-25.683 -3.776,-51.489 -3.776,-77.296 0,-434.371 352.352,-786.723 786.723,-786.723 434.371,0 786.723,352.352 786.723,786.723 0,51.075 -4.255,102.003 -4.255,152.985 0,69.926 4.255,139.793 4.255,209.754 0,434.371 -352.352,786.723 -786.723,786.723 -434.371,0 -786.723,-352.352 -786.723,-786.723 0,-94.066 12.922,-192.177 3.776,-285.443z"/>
  <path class="fil3" d="M1609.62 1034.68c0.479,40.827 1.786,78.518 6.108,120.425 2.036,19.751 3.083,39.796 3.083,60.084 0,320.671 -260.052,580.723 -580.723,580.723 -320.671,0 -580.723,-260.052 -580.723,-580.723 0,-16.824 0.719,-33.482 2.126,-49.942 3.889,-45.507 6.814,-86.454 7.21,-130.567 0.374,-41.768 -2.333,-82.108 -6.544,-125.041 -1.845,-18.813 -2.792,-37.891 -2.792,-57.189 0,-320.671 260.052,-580.723 580.723,-580.723 320.671,0 580.723,260.052 580.723,580.723 0,23.257 -1.375,46.194 -4.041,68.733 -4.595,38.845 -5.595,75.484 -5.15,113.497zm-1068.32 133.157c54.404,80.458 81.666,186.227 167.994,255.062 14.383,11.468 5.289,40.908 -13.031,42.542 -56.407,5.036 -112.528,2.549 -138.544,-48.778 -31.412,-61.967 -20.524,-177.971 -16.419,-248.826zm69.949 -609.629c58.74,-1.12 119.473,10.207 174.177,27.429 18.335,5.773 33.554,34.997 -2.744,57.602 -47.404,29.524 -74.605,66.414 -108.378,116.591 -20.941,31.112 -116.615,39 -126.143,2.728 -19.844,-75.522 33.851,-129.393 63.088,-204.35z"/>
  <path class="fil4" d="M1840.08 422.7c21.121,0 38.25,17.129 38.25,38.25 0,21.121 -17.129,38.25 -38.25,38.25 -21.121,0 -38.25,-17.129 -38.25,-38.25 0,-21.121 17.129,-38.25 38.25,-38.25zm0 -31.875c38.722,0 70.125,31.403 70.125,70.125 0,38.722 -31.403,70.125 -70.125,70.125 -38.722,0 -70.125,-31.403 -70.125,-70.125 0,-38.722 31.403,-70.125 70.125,-70.125zm-1339.18 1461.58c19.948,0 36.125,16.177 36.125,36.125 0,19.948 -16.177,36.125 -36.125,36.125 -19.948,0 -36.125,-16.177 -36.125,-36.125 0,-19.948 16.177,-36.125 36.125,-36.125zm0 -8.5c24.642,0 44.625,19.983 44.625,44.625 0,24.642 -19.983,44.625 -44.625,44.625 -24.642,0 -44.625,-19.983 -44.625,-44.625 0,-24.642 19.983,-44.625 44.625,-44.625zm1235.8 -1186.08c16.897,0 30.6,13.703 30.6,30.6 0,16.897 -13.703,30.6 -30.6,30.6 -16.897,0 -30.6,-13.703 -30.6,-30.6 0,-16.897 13.703,-30.6 30.6,-30.6zm-105.524 -238.28c16.897,0 30.6,13.703 30.6,30.6 0,16.897 -13.703,30.6 -30.6,30.6 -16.897,0 -30.6,-13.703 -30.6,-30.6 0,-16.897 13.703,-30.6 30.6,-30.6zm-194.879 -194.028c16.897,0 30.6,13.703 30.6,30.6 0,16.897 -13.703,30.6 -30.6,30.6 -16.897,0 -30.6,-13.703 -30.6,-30.6 0,-16.897 13.703,-30.6 30.6,-30.6zm53.951 1514.35c16.897,0 30.6,13.703 30.6,30.6 0,16.897 -13.703,30.6 -30.6,30.6 -16.897,0 -30.6,-13.703 -30.6,-30.6 0,-16.897 13.703,-30.6 30.6,-30.6zm-652.715 -1608.34c16.897,0 30.6,13.703 30.6,30.6 0,16.897 -13.703,30.6 -30.6,30.6 -16.897,0 -30.6,-13.703 -30.6,-30.6 0,-16.897 13.703,-30.6 30.6,-30.6zm-242.245 124.699c16.897,0 30.6,13.703 30.6,30.6 0,16.897 -13.703,30.6 -30.6,30.6 -16.897,0 -30.6,-13.703 -30.6,-30.6 0,-16.897 13.703,-30.6 30.6,-30.6zm-272.091 612.996c16.897,0 30.6,13.703 30.6,30.6 0,16.897 -13.703,30.6 -30.6,30.6 -16.897,0 -30.6,-13.703 -30.6,-30.6 0,-16.897 13.703,-30.6 30.6,-30.6zm-1.311 332.968c16.897,0 30.6,13.703 30.6,30.6 0,16.897 -13.703,30.6 -30.6,30.6 -16.897,0 -30.6,-13.703 -30.6,-30.6 0,-16.897 13.703,-30.6 30.6,-30.6zm179.71 454.8c16.897,0 30.6,13.703 30.6,30.6 0,16.897 -13.703,30.6 -30.6,30.6 -16.897,0 -30.6,-13.703 -30.6,-30.6 0,-16.897 13.703,-30.6 30.6,-30.6zm178.812 146.452c16.897,0 30.6,13.703 30.6,30.6 0,16.897 -13.703,30.6 -30.6,30.6 -16.897,0 -30.6,-13.703 -30.6,-30.6 0,-16.897 13.703,-30.6 30.6,-30.6zm284.793 91.495c16.897,0 30.6,13.703 30.6,30.6 0,16.897 -13.703,30.6 -30.6,30.6 -16.897,0 -30.6,-13.703 -30.6,-30.6 0,-16.897 13.703,-30.6 30.6,-30.6zm284.009 -28.96c16.897,0 30.6,13.703 30.6,30.6 0,16.897 -13.703,30.6 -30.6,30.6 -16.897,0 -30.6,-13.703 -30.6,-30.6 0,-16.897 13.703,-30.6 30.6,-30.6zm415.831 -337.17c16.897,0 30.6,13.703 30.6,30.6 0,16.897 -13.703,30.6 -30.6,30.6 -16.897,0 -30.6,-13.703 -30.6,-30.6 0,-16.897 13.703,-30.6 30.6,-30.6zm78.581 -227.755c16.897,0 30.6,13.703 30.6,30.6 0,16.897 -13.703,30.6 -30.6,30.6 -16.897,0 -30.6,-13.703 -30.6,-30.6 0,-16.897 13.703,-30.6 30.6,-30.6zm12.19 -338.473c16.897,0 30.6,13.703 30.6,30.6 0,16.897 -13.703,30.6 -30.6,30.6 -16.897,0 -30.6,-13.703 -30.6,-30.6 0,-16.897 13.703,-30.6 30.6,-30.6zm-638.64 -857.061c16.897,0 30.6,13.703 30.6,30.6 0,16.897 -13.703,30.6 -30.6,30.6 -16.897,0 -30.6,-13.703 -30.6,-30.6 0,-16.897 13.703,-30.6 30.6,-30.6zm871.104 1767.31c16.897,0 30.6,13.703 30.6,30.6 0,16.897 -13.703,30.6 -30.6,30.6 -16.897,0 -30.6,-13.703 -30.6,-30.6 0,-16.897 13.703,-30.6 30.6,-30.6z"/>
  <g id="crankshaft">
   <g id="piston">
    <path id="_91644200" class="fil0" d="M1612.98 799.081c-24.776,403.782 -237.853,770.672 -573.812,994.188l-1.108 0.737 -1.108 -0.737c-335.975,-223.506 -548.984,-590.425 -573.761,-994.201l-0.081 -1.322 1.185 -0.59c178.6,-88.935 374.306,-134.519 573.791,-134.519 199.49,0 395.184,45.605 573.789,134.532l1.186 0.59 -0.081 1.322z"/>
    <path id="_91643336" class="fil5" d="M1593.27 809.188c-173.232,-84.333 -362.402,-127.551 -555.188,-127.551 -192.782,0 -381.962,43.197 -555.189,127.538 27.383,389.604 232.68,743.283 555.163,961.95 322.468,-218.676 527.831,-572.327 555.214,-961.937zm7.98 0.561c-27.53,391.701 -233.923,747.753 -558.704,967.997l-4.49 3.045 -4.49 -3.045c-324.796,-220.235 -531.123,-576.316 -558.653,-968.01l-0.379 -5.389 4.857 -2.365c174.32,-84.873 364.841,-128.345 558.691,-128.345 193.853,0 384.364,43.493 558.69,128.358l4.857 2.365 -0.379 5.389zm-563.168 -102.045c233.211,0 422.337,189.126 422.337,422.337 0,233.211 -189.126,422.337 -422.337,422.337 -233.211,0 -422.337,-189.126 -422.337,-422.337 0,-233.211 189.126,-422.337 422.337,-422.337zm0 -43.067c205.824,0 400.333,48.403 572.898,134.322 -25.427,414.391 -246.976,775.789 -572.924,992.645 -325.971,-216.851 -547.445,-578.276 -572.873,-992.658 172.555,-85.925 367.071,-134.309 572.899,-134.309z"/>
    <path id="_91643912" class="fil6" d="M1023.3 830.853l7.908 20.95c2.285,-0.055 4.578,-0.086 6.876,-0.086 1.563,0 3.117,0.033 4.674,0.059l7.74 -21.013c3.239,0.132 6.468,0.303 9.68,0.537l5.272 21.757c3.853,0.376 7.677,0.84 11.482,1.372l10.267 -19.909c3.189,0.526 6.365,1.098 9.519,1.724l2.558 22.24c3.78,0.848 7.528,1.778 11.248,2.779l12.633 -18.494c3.094,0.915 6.169,1.874 9.22,2.885l-0.194 22.394c3.643,1.309 7.248,2.697 10.82,4.152l14.805 -16.795c2.957,1.291 5.892,2.621 8.799,4.004l-2.945 22.205c3.446,1.746 6.845,3.568 10.207,5.451l16.753 -14.846c2.78,1.648 5.538,3.329 8.259,5.064l-5.652 21.674c3.197,2.151 6.338,4.375 9.44,6.653l18.45 -12.674c2.56,1.979 5.099,3.987 7.593,6.046l-8.272 20.814c2.904,2.521 5.748,5.109 8.544,7.746l19.874 -10.313c2.302,2.28 4.566,4.592 6.793,6.945l-10.763 19.633c2.573,2.855 5.091,5.76 7.546,8.721l20.996 -7.795c2.003,2.54 3.954,5.121 5.876,7.726l-13.09 18.156c2.208,3.152 4.362,6.343 6.44,9.589l21.797 -5.156c1.672,2.759 3.285,5.556 4.87,8.372l-15.223 16.412c1.806,3.403 3.55,6.844 5.217,10.329l22.267 -2.439c1.316,2.937 2.575,5.904 3.799,8.891l-17.131 14.421c1.372,3.601 2.677,7.235 3.903,10.906l22.392 0.315c0.942,3.075 1.824,6.175 2.67,9.292l-18.778 12.21c0.914,3.737 1.76,7.501 2.522,11.296l22.176 3.064c0.556,3.171 1.047,6.365 1.502,9.569l-20.138 9.81c0.445,3.811 0.823,7.641 1.116,11.496l21.634 5.767c0.164,3.218 0.255,6.454 0.314,9.699l-21.178 7.257c-0.023,3.864 -0.121,7.709 -0.3,11.535l20.766 8.383c-0.23,3.233 -0.503,6.455 -0.836,9.659l-21.905 4.598c-0.494,3.838 -1.079,7.647 -1.727,11.435l19.585 10.875c-0.624,3.17 -1.281,6.327 -2.004,9.46l-22.312 1.873c-0.965,3.753 -2.021,7.468 -3.137,11.157l18.095 13.196c-1.01,3.062 -2.049,6.111 -3.154,9.129l-22.382 -0.884c-1.421,3.601 -2.928,7.158 -4.493,10.683l16.332 15.316c-1.382,2.916 -2.799,5.81 -4.272,8.674l-22.105 -3.628c-1.85,3.39 -3.776,6.731 -5.761,10.033l14.324 17.205c-1.733,2.728 -3.509,5.427 -5.327,8.095l-21.489 -6.316c-2.247,3.129 -4.553,6.212 -6.924,9.241l12.102 18.836c-2.057,2.499 -4.165,4.954 -6.3,7.385l-20.543 -8.906c-2.608,2.826 -5.265,5.609 -7.987,8.325l9.695 20.178c-2.346,2.229 -4.738,4.408 -7.156,6.561l-19.288 -11.36c-2.934,2.487 -5.917,4.918 -8.953,7.283l7.144 21.225c-2.597,1.922 -5.23,3.798 -7.89,5.637l-17.743 -13.642c-3.221,2.112 -6.486,4.158 -9.798,6.138l4.483 21.947c-2.805,1.585 -5.639,3.124 -8.499,4.62l-15.935 -15.722c-3.462,1.703 -6.964,3.332 -10.505,4.894l1.752 22.33c-2.972,1.223 -5.967,2.401 -8.986,3.531l-13.887 -17.567c-3.646,1.262 -7.329,2.444 -11.041,3.557l-1.005 22.368c-3.099,0.846 -6.217,1.645 -9.355,2.393l-11.626 -19.145c-3.766,0.8 -7.564,1.514 -11.384,2.16l-3.745 22.07c-3.184,0.457 -6.384,0.861 -9.599,1.218l-9.186 -20.43c-3.824,0.33 -7.672,0.577 -11.537,0.753l-6.43 21.444c-2.022,0.041 -4.043,0.078 -6.075,0.078 -1.209,0 -2.411,-0.032 -3.617,-0.046l-6.601 -21.389c-3.87,-0.14 -7.722,-0.343 -11.55,-0.639l-9.023 20.508c-3.217,-0.329 -6.413,-0.726 -9.599,-1.156l-3.921 -22.036c-3.83,-0.613 -7.639,-1.291 -11.415,-2.059l-11.473 19.239c-3.141,-0.72 -6.257,-1.501 -9.36,-2.319l-1.184 -22.359c-3.728,-1.083 -7.428,-2.231 -11.089,-3.464l-13.748 17.681c-3.024,-1.102 -6.019,-2.264 -8.996,-3.46l1.573 -22.341c-3.561,-1.534 -7.089,-3.129 -10.572,-4.805l-15.811 15.851c-2.867,-1.469 -5.697,-2.998 -8.509,-4.556l4.308 -21.983c-3.335,-1.956 -6.634,-3.969 -9.878,-6.058l-17.635 13.785c-2.67,-1.814 -5.3,-3.681 -7.907,-5.578l6.974 -21.28c-3.062,-2.345 -6.078,-4.746 -9.038,-7.213l-19.195 11.513c-2.431,-2.129 -4.822,-4.301 -7.183,-6.506l9.532 -20.256c-2.749,-2.698 -5.442,-5.453 -8.078,-8.262l-20.47 9.07c-2.151,-2.408 -4.266,-4.851 -6.339,-7.328l11.948 -18.928c-2.401,-3.015 -4.737,-6.085 -7.013,-9.2l-21.436 6.488c-1.836,-2.647 -3.637,-5.322 -5.39,-8.03l14.183 -17.315c-2.017,-3.292 -3.958,-6.636 -5.84,-10.017l-22.075 3.805c-1.493,-2.845 -2.954,-5.71 -4.357,-8.607l16.207 -15.445c-1.598,-3.52 -3.11,-7.087 -4.564,-10.684l-22.373 1.064c-1.127,-3.002 -2.222,-6.019 -3.255,-9.065l17.987 -13.341c-1.15,-3.689 -2.205,-7.419 -3.203,-11.173l-22.325 -1.693c-0.747,-3.119 -1.461,-6.25 -2.111,-9.406l19.498 -11.033c-0.683,-3.792 -1.268,-7.618 -1.795,-11.462l-21.941 -4.423c-0.357,-3.194 -0.672,-6.401 -0.931,-9.623l20.702 -8.551c-0.213,-3.833 -0.33,-7.692 -0.386,-11.566l-21.237 -7.087c0.034,-3.239 0.116,-6.466 0.252,-9.68l21.583 -5.939c0.258,-3.867 0.591,-7.713 1.006,-11.535l-20.217 -9.648c0.427,-3.201 0.912,-6.385 1.439,-9.553l22.148 -3.242c0.732,-3.811 1.535,-7.596 2.42,-11.351l-18.875 -12.059c0.817,-3.115 1.691,-6.207 2.605,-9.282l22.387 -0.495c1.198,-3.691 2.464,-7.352 3.81,-10.974l-17.245 -14.282c1.196,-2.989 2.446,-5.95 3.735,-8.891l22.285 2.26c1.642,-3.508 3.352,-6.978 5.134,-10.404l-15.354 -16.288c1.558,-2.822 3.163,-5.616 4.809,-8.381l21.838 4.982c2.056,-3.27 4.178,-6.492 6.365,-9.669l-13.234 -18.049c1.897,-2.615 3.831,-5.2 5.809,-7.751l21.056 7.625c2.436,-2.986 4.936,-5.915 7.491,-8.797l-10.919 -19.543c2.204,-2.365 4.437,-4.701 6.715,-6.994l19.953 10.153c2.78,-2.664 5.624,-5.263 8.512,-7.811l-8.436 -20.743c2.473,-2.076 4.967,-4.128 7.507,-6.124l18.554 12.527c3.088,-2.307 6.234,-4.539 9.419,-6.719l-5.825 -21.628c2.703,-1.754 5.432,-3.47 8.194,-5.138l16.874 14.712c3.352,-1.913 6.749,-3.758 10.186,-5.534l-3.124 -22.182c2.891,-1.404 5.81,-2.759 8.752,-4.071l14.941 16.678c3.564,-1.486 7.164,-2.907 10.802,-4.247l-0.374 -22.394c3.038,-1.034 6.104,-2.01 9.185,-2.948l12.781 18.392c3.717,-1.032 7.461,-1.996 11.239,-2.876l2.38 -22.259c3.145,-0.651 6.313,-1.245 9.493,-1.796l10.426 19.827c3.803,-0.562 7.631,-1.048 11.482,-1.456l5.096 -21.793c3.209,-0.26 6.429,-0.475 9.667,-0.632zm14.784 -49.927c22.095,0 43.703,2.072 64.659,6.002 -2.749,3.598 -4.382,8.097 -4.382,12.974 0,11.809 9.577,21.386 21.386,21.386 11.809,0 21.386,-9.577 21.386,-21.386 0,-1.224 -0.107,-2.427 -0.304,-3.594 42.597,13.104 81.709,34.148 115.638,61.391 -7.376,3.374 -12.5,10.821 -12.5,19.46 0,11.809 9.577,21.386 21.386,21.386 9.445,0 17.459,-6.13 20.291,-14.625 41.69,41.929 72.784,94.392 88.977,153.033 -1.356,-0.27 -2.755,-0.411 -4.189,-0.411 -11.809,0 -21.386,9.577 -21.386,21.386 0,11.809 9.577,21.386 21.386,21.386 4.659,0 8.965,-1.495 12.478,-4.025 2.818,17.837 4.289,36.124 4.289,54.752 0,27.167 -3.105,53.608 -8.982,78.99 -3.711,-3.098 -8.483,-4.963 -13.694,-4.963 -11.809,0 -21.386,9.577 -21.386,21.386 0,11.809 9.577,21.386 21.386,21.386 0.909,0 1.802,-0.059 2.681,-0.169 -15.029,42.373 -37.993,80.992 -67.129,114.051 -3.165,-7.856 -10.855,-13.4 -19.842,-13.4 -11.809,0 -21.386,9.577 -21.386,21.386 0,9.104 5.689,16.877 13.707,19.963 -32.528,29.509 -70.654,52.956 -112.584,68.586 0.085,-0.771 0.13,-1.552 0.13,-2.346 0,-11.809 -9.577,-21.386 -21.386,-21.386 -11.809,0 -21.386,9.577 -21.386,21.386 0,5.326 1.947,10.195 5.17,13.939 -27.033,6.722 -55.304,10.306 -84.414,10.306 -32.491,0 -63.936,-4.46 -93.783,-12.768 3.46,-3.8 5.569,-8.848 5.569,-14.391 0,-11.809 -9.577,-21.386 -21.386,-21.386 -11.809,0 -21.386,9.577 -21.386,21.386 0,0.588 0.027,1.168 0.073,1.745 -40.704,-16.482 -77.597,-40.412 -108.979,-70.108 8.235,-2.974 14.119,-10.858 14.119,-20.117 0,-11.809 -9.577,-21.386 -21.386,-21.386 -8.826,0 -16.403,5.349 -19.669,12.982 -28.189,-33.385 -50.237,-72.125 -64.381,-114.481 1.007,0.146 2.035,0.224 3.083,0.224 11.809,0 21.386,-9.577 21.386,-21.386 0,-11.809 -9.577,-21.386 -21.386,-21.386 -5.062,0 -9.709,1.759 -13.372,4.7 -4.982,-23.465 -7.617,-47.795 -7.617,-72.743 0,-18.92 1.528,-37.485 4.427,-55.589 3.519,2.547 7.841,4.052 12.516,4.052 11.809,0 21.386,-9.577 21.386,-21.386 0,-11.809 -9.577,-21.386 -21.386,-21.386 -1.418,0 -2.802,0.138 -4.143,0.402 16.232,-58.246 47.188,-110.36 88.615,-152.07 2.835,8.488 10.846,14.612 20.286,14.612 11.809,0 21.386,-9.577 21.386,-21.386 0,-8.644 -5.129,-16.094 -12.511,-19.465 33.785,-27.161 72.713,-48.177 115.113,-61.314 -0.193,1.157 -0.298,2.347 -0.298,3.558 0,11.809 9.577,21.386 21.386,21.386 11.809,0 21.386,-9.577 21.386,-21.386 0,-4.892 -1.643,-9.402 -4.408,-13.006 21.177,-4.013 43.018,-6.137 65.36,-6.137z"/>
    <path id="_91643408" class="fil0" d="M1038.09 1704.57c19.244,0 34.85,15.606 34.85,34.85 0,16.982 -12.155,31.127 -28.236,34.219l0 19.056c0,1.737 -1.508,3.162 -3.348,3.162l-6.532 0c-1.84,0 -3.348,-1.423 -3.348,-3.162l0 -19.056c-16.081,-3.092 -28.236,-17.237 -28.236,-34.219 0,-19.244 15.606,-34.85 34.85,-34.85zm-554.499 -902.309l-16.504 -9.529c-1.505,-0.868 -3.493,-0.275 -4.413,1.319l-3.266 5.656c-0.92,1.594 -0.442,3.611 1.065,4.481l16.503 9.528c-5.364,15.472 0.808,33.071 15.516,41.562 16.666,9.622 37.984,3.91 47.606,-12.756 9.622,-16.665 3.91,-37.983 -12.756,-47.605 -14.707,-8.491 -33.033,-5.037 -43.751,7.344zm1108.78 0.128l16.504 -9.529c1.505,-0.868 3.493,-0.275 4.413,1.319l3.266 5.656c0.92,1.594 0.442,3.611 -1.065,4.481l-16.503 9.528c5.364,15.472 -0.808,33.071 -15.516,41.562 -16.666,9.622 -37.984,3.91 -47.606,-12.756 -9.622,-16.665 -3.91,-37.983 12.756,-47.605 14.707,-8.491 33.033,-5.037 43.751,7.344z"/>
    <path id="_91644152" class="fil7" d="M1051.45 1709.41c11.479,5.122 19.485,16.637 19.485,30.016 0,15.874 -11.265,29.122 -26.236,32.183l0 -23.476c8.982,-2.812 15.5,-11.198 15.5,-21.106 0,-7.188 -3.435,-13.578 -8.749,-17.617zm-19.979 62.199c-14.97,-3.062 -26.236,-16.31 -26.236,-32.183 0,-13.379 8.006,-24.894 19.485,-30.016 -5.314,4.039 -8.749,10.429 -8.749,17.617 0,9.906 6.52,18.292 15.5,21.105l0 23.477zm-488.882 -943.072c1.304,-12.502 -4.665,-25.193 -16.252,-31.882 -13.747,-7.937 -30.85,-4.803 -40.987,6.63l20.33 11.738c6.927,-6.371 17.448,-7.825 26.027,-2.871 6.225,3.594 10.041,9.764 10.882,16.385zm-63.854 -13.796c-4.833,14.495 1.005,30.875 14.752,38.811 11.587,6.69 25.562,5.514 35.737,-1.866 -6.155,2.582 -13.406,2.362 -19.631,-1.232 -8.58,-4.953 -12.582,-14.791 -10.526,-23.975l-20.332 -11.738zm1054.62 13.924c-1.304,-12.502 4.665,-25.193 16.252,-31.882 13.747,-7.937 30.85,-4.803 40.987,6.63l-20.33 11.738c-6.927,-6.371 -17.448,-7.825 -26.027,-2.871 -6.225,3.594 -10.041,9.764 -10.882,16.385zm63.854 -13.796c4.833,14.495 -1.005,30.875 -14.752,38.811 -11.587,6.69 -25.562,5.514 -35.737,-1.866 6.155,2.582 13.406,2.362 19.631,-1.232 8.58,-4.953 12.582,-14.791 10.526,-23.975l20.332 -11.738z"/>
    <path id="_91643528" class="fil5" d="M1034.82 1748.9l6.532 0c0.743,0 1.348,0.523 1.348,1.162l0 42.638c0,0.639 -0.606,1.162 -1.348,1.162l-6.532 0c-0.742,0 -1.348,-0.522 -1.348,-1.162l0 -42.638c0,-0.64 0.605,-1.162 1.348,-1.162zm541.055 -925.579l-3.266 -5.656c-0.372,-0.644 -0.221,-1.429 0.332,-1.749l36.925 -21.319c0.554,-0.319 1.31,-0.056 1.681,0.587l3.266 5.656c0.371,0.643 0.222,1.429 -0.333,1.749l-36.925 21.319c-0.554,0.32 -1.309,0.057 -1.68,-0.587zm-1075.8 -0.128l3.266 -5.656c0.372,-0.644 0.221,-1.429 -0.332,-1.749l-36.925 -21.319c-0.554,-0.319 -1.31,-0.056 -1.681,0.587l-3.266 5.656c-0.371,0.643 -0.222,1.429 0.333,1.749l36.925 21.319c0.554,0.32 1.309,0.057 1.68,-0.587z"/>
    <line id="piston_center" class="fil8" x1="1038.09" y1="1130.04" x2="1038.09" y2= "1130.04" />
   </g>
   <path id="_91643720" class="fil1" d="M1038.09 881.396c137.299,0 248.645,111.346 248.645,248.645 0,137.299 -111.346,248.645 -248.645,248.645 -137.299,0 -248.645,-111.346 -248.645,-248.645 0,-137.299 111.346,-248.645 248.645,-248.645z"/>
   <path id="_91643672" class="fil0" d="M1035.97 1378.68l0.111 -343.995c0.001,-3.177 4.001,-3.175 4,0.002l-0.111 343.995 -4 -0.002z"/>
  </g>
  <path class="fil0" d="M1053.08 832.069c2.327,0.171 4.644,0.383 6.949,0.631l6.662 25.562c2.679,0.431 5.339,0.916 7.977,1.465l15.416 -21.478c2.243,0.593 4.471,1.224 6.683,1.891l1.852 26.357c2.556,0.921 5.085,1.902 7.585,2.934l19.095 -18.275c2.092,0.996 4.164,2.028 6.216,3.093l-3.024 26.266c2.335,1.373 4.637,2.797 6.903,4.271l22.117 -14.448c1.877,1.366 3.734,2.757 5.562,4.186l-7.796 25.252c2.041,1.774 4.042,3.593 6,5.457l24.399 -10.139c1.596,1.686 3.157,3.403 4.694,5.143l-12.296 23.378c1.683,2.118 3.317,4.276 4.904,6.47l25.868 -5.488c1.254,1.941 2.473,3.907 3.662,5.893l-16.387 20.725c1.269,2.398 2.487,4.827 3.649,7.287l26.428 -0.641c0.872,2.131 1.714,4.275 2.515,6.441l-19.92 17.365c0.806,2.594 1.547,5.216 2.236,7.859l26.091 4.225c0.461,2.254 0.869,4.526 1.255,6.806l-22.785 13.417c0.31,2.682 0.56,5.382 0.752,8.098l24.858 8.943c0.022,1.221 0.047,2.441 0.047,3.667 0,1.098 -0.025,2.19 -0.042,3.284l-24.842 8.994c-0.184,2.716 -0.431,5.414 -0.735,8.096l22.81 13.369c-0.382,2.283 -0.79,4.557 -1.247,6.814l-26.076 4.277c-0.683,2.643 -1.427,5.262 -2.226,7.855l19.96 17.328c-0.796,2.169 -1.64,4.314 -2.508,6.448l-26.433 -0.587c-1.156,2.46 -2.367,4.889 -3.63,7.286l16.427 20.689c-1.186,1.99 -2.399,3.964 -3.65,5.909l-25.884 -5.437c-1.581,2.194 -3.208,4.353 -4.884,6.471l12.344 23.351c-1.536,1.746 -3.1,3.467 -4.695,5.159l-24.42 -10.09c-1.95,1.864 -3.947,3.679 -5.979,5.454l7.848 25.242c-1.828,1.435 -3.688,2.829 -5.566,4.202l-22.148 -14.404c-2.258,1.475 -4.551,2.898 -6.878,4.272l3.078 26.26c-2.054,1.072 -4.125,2.114 -6.22,3.117l-19.135 -18.239c-2.493,1.035 -5.014,2.018 -7.562,2.942l-1.799 26.361c-2.215,0.673 -4.448,1.306 -6.695,1.905l-15.46 -21.448c-2.629,0.553 -5.282,1.041 -7.953,1.478l-6.61 25.574c-2.31,0.254 -4.63,0.476 -6.962,0.653l-11.258 -23.929c-1.374,0.032 -2.752,0.054 -4.134,0.054 -1.311,0 -2.615,-0.023 -3.919,-0.051l-11.206 23.943c-2.336,-0.172 -4.659,-0.391 -6.973,-0.641l-6.664 -25.569c-2.664,-0.431 -5.309,-0.915 -7.932,-1.463l-15.412 21.472c-2.257,-0.597 -4.499,-1.234 -6.725,-1.906l-1.852 -26.367c-2.535,-0.915 -5.041,-1.889 -7.521,-2.914l-19.092 18.272c-2.11,-1.006 -4.197,-2.05 -6.267,-3.126l3.025 -26.276c-2.309,-1.36 -4.585,-2.768 -6.826,-4.227l-22.113 14.446c-1.897,-1.382 -3.774,-2.789 -5.621,-4.234l7.799 -25.262c-2.013,-1.753 -3.989,-3.547 -5.921,-5.387l-24.398 10.139c-1.615,-1.708 -3.195,-3.447 -4.751,-5.21l12.3 -23.385c-1.657,-2.088 -3.265,-4.216 -4.829,-6.378l-25.869 5.488c-1.272,-1.968 -2.505,-3.962 -3.71,-5.976l16.39 -20.729c-1.248,-2.36 -2.446,-4.752 -3.59,-7.174l-26.43 0.641c-0.885,-2.161 -1.74,-4.338 -2.552,-6.536l19.925 -17.369c-0.791,-2.551 -1.52,-5.13 -2.199,-7.729l-26.094 -4.226c-0.469,-2.287 -0.883,-4.594 -1.274,-6.909l22.788 -13.419c-0.304,-2.638 -0.55,-5.295 -0.741,-7.966l-24.862 -8.944c-0.023,-1.244 -0.048,-2.488 -0.048,-3.738 0,-1.109 0.024,-2.212 0.042,-3.316l24.844 -8.995c0.182,-2.673 0.424,-5.329 0.722,-7.968l-22.815 -13.371c0.386,-2.316 0.799,-4.621 1.263,-6.91l26.075 -4.277c0.673,-2.604 1.407,-5.182 2.193,-7.739l-19.969 -17.336c0.806,-2.198 1.661,-4.37 2.54,-6.531l26.431 0.588c1.14,-2.428 2.334,-4.825 3.578,-7.192l-16.431 -20.695c1.198,-2.014 2.423,-4.01 3.688,-5.978l25.88 5.436c1.562,-2.17 3.17,-4.305 4.825,-6.401l-12.346 -23.357c1.55,-1.763 3.128,-3.5 4.737,-5.208l24.415 10.088c1.931,-1.847 3.908,-3.649 5.92,-5.409l-7.852 -25.254c1.84,-1.446 3.713,-2.849 5.603,-4.232l22.144 14.401c2.242,-1.467 4.52,-2.885 6.831,-4.252l-3.078 -26.265c2.062,-1.078 4.142,-2.129 6.245,-3.137l19.13 18.234c2.484,-1.033 4.996,-2.017 7.535,-2.94l1.799 -26.368c2.219,-0.675 4.455,-1.311 6.705,-1.912l15.457 21.443c2.628,-0.555 5.278,-1.047 7.947,-1.485l6.612 -25.581c2.307,-0.255 4.624,-0.481 6.953,-0.659l11.256 23.922c1.425,-0.034 2.852,-0.054 4.285,-0.054 1.266,0 2.528,0.021 3.787,0.048l11.21 -23.951zm-14.997 69.999c73.227,0 132.614,59.387 132.614,132.614 0,73.227 -59.387,132.614 -132.614,132.614 -73.227,0 -132.614,-59.387 -132.614,-132.614 0,-73.227 59.387,-132.614 132.614,-132.614z"/>
  <path class="fil9" d="M1054.31 834.169l-11.176 23.878 -1.302 -0.027c-1.248,-0.027 -2.496,-0.048 -3.744,-0.048 -1.413,0 -2.825,0.02 -4.237,0.053l-1.303 0.032 -11.221 -23.848c-1.382,0.116 -2.763,0.249 -4.143,0.394l-6.592 25.504 -1.286 0.211c-2.63,0.431 -5.25,0.917 -7.858,1.468l-1.274 0.269 -15.409 -21.377c-1.334,0.366 -2.665,0.744 -3.991,1.137l-1.793 26.286 -1.224 0.445c-2.505,0.911 -4.988,1.883 -7.45,2.907l-1.204 0.5 -19.07 -18.177c-1.247,0.611 -2.488,1.236 -3.722,1.872l3.069 26.185 -1.12 0.662c-2.282,1.351 -4.535,2.752 -6.754,4.205l-1.092 0.714 -22.077 -14.358c-1.126,0.832 -2.244,1.673 -3.352,2.529l7.827 25.175 -0.979 0.856c-1.99,1.741 -3.944,3.522 -5.855,5.349l-0.941 0.901 -24.341 -10.057c-0.956,1.03 -1.902,2.07 -2.837,3.12l12.308 23.285 -0.807 1.022c-1.638,2.074 -3.228,4.186 -4.772,6.33l-0.76 1.057 -25.8 -5.419c-0.748,1.184 -1.481,2.377 -2.204,3.576l16.381 20.632 -0.607 1.153c-1.231,2.344 -2.412,4.715 -3.538,7.112l-0.553 1.178 -26.351 -0.586c-0.519,1.295 -1.028,2.594 -1.519,3.899l19.905 17.281 -0.382 1.245c-0.779,2.534 -1.505,5.084 -2.169,7.651l-0.326 1.263 -25.993 4.263c-0.266,1.375 -0.515,2.753 -0.753,4.134l22.746 13.33 -0.146 1.292c-0.296,2.621 -0.534,5.248 -0.714,7.88l-0.088 1.301 -24.775 8.97c-0.01,0.634 -0.018,1.269 -0.018,1.904 0,0.774 0.01,1.549 0.023,2.323l24.789 8.918 0.093 1.298c0.188,2.632 0.431,5.259 0.733,7.88l0.149 1.292 -22.72 13.379c0.24,1.38 0.49,2.759 0.759,4.133l26.011 4.213 0.329 1.26c0.67,2.563 1.39,5.113 2.174,7.643l0.386 1.244 -19.862 17.314c0.494,1.308 1.004,2.609 1.526,3.906l26.35 -0.639 0.555 1.177c1.13,2.391 2.314,4.756 3.55,7.093l0.61 1.153 -16.34 20.665c0.728,1.2 1.467,2.394 2.22,3.579l25.789 -5.471 0.762 1.054c1.546,2.136 3.136,4.241 4.776,6.307l0.81 1.021 -12.263 23.314c0.939,1.051 1.888,2.093 2.848,3.125l24.323 -10.108 0.943 0.899c1.911,1.82 3.865,3.594 5.855,5.327l0.982 0.854 -7.775 25.184c1.113,0.857 2.237,1.701 3.367,2.534l22.046 -14.402 1.093 0.712c2.218,1.444 4.47,2.837 6.75,4.18l1.121 0.66 -3.016 26.195c1.24,0.635 2.487,1.258 3.741,1.867l19.032 -18.215 1.205 0.498c2.457,1.015 4.935,1.978 7.436,2.881l1.225 0.442 1.846 26.285c1.332,0.393 2.669,0.772 4.009,1.137l15.364 -21.406 1.275 0.266c2.602,0.544 5.218,1.022 7.842,1.447l1.288 0.208 6.643 25.491c1.386,0.142 2.774,0.271 4.162,0.384l11.172 -23.87 1.302 0.028c1.292,0.028 2.584,0.051 3.876,0.051 1.363,0 2.725,-0.022 4.087,-0.053l1.302 -0.031 11.224 23.855c1.385,-0.115 2.769,-0.246 4.151,-0.39l6.59 -25.496 1.287 -0.211c2.632,-0.43 5.255,-0.912 7.864,-1.461l1.274 -0.268 15.412 21.382c1.33,-0.364 2.657,-0.741 3.98,-1.132l1.793 -26.279 1.225 -0.444c2.515,-0.912 5.007,-1.884 7.477,-2.909l1.204 -0.5 19.075 18.182c1.238,-0.604 2.47,-1.223 3.696,-1.853l-3.069 -26.18 1.121 -0.662c2.298,-1.357 4.567,-2.765 6.801,-4.224l1.092 -0.713 22.081 14.36c1.112,-0.822 2.218,-1.654 3.314,-2.499l-7.823 -25.164 0.98 -0.856c2.01,-1.755 3.984,-3.55 5.913,-5.394l0.942 -0.9 24.345 10.059c0.942,-1.014 1.874,-2.038 2.795,-3.071l-12.307 -23.28 0.81 -1.023c1.658,-2.096 3.267,-4.231 4.829,-6.399l0.761 -1.056 25.803 5.42c0.734,-1.161 1.455,-2.332 2.165,-3.508l-16.377 -20.626 0.609 -1.154c1.25,-2.374 2.448,-4.776 3.589,-7.205l0.553 -1.177 26.353 0.585c0.508,-1.267 1.006,-2.539 1.487,-3.816l-19.897 -17.274 0.384 -1.245c0.792,-2.572 1.527,-5.161 2.201,-7.766l0.326 -1.263 25.993 -4.263c0.26,-1.343 0.504,-2.69 0.737,-4.038l-22.741 -13.328 0.147 -1.293c0.302,-2.663 0.545,-5.332 0.727,-8.006l0.088 -1.302 24.773 -8.968c0.01,-0.625 0.018,-1.249 0.018,-1.873 0,-0.751 -0.01,-1.501 -0.022,-2.252l-24.786 -8.917 -0.092 -1.3c-0.189,-2.675 -0.436,-5.346 -0.744,-8.009l-0.149 -1.293 22.716 -13.377c-0.234,-1.346 -0.478,-2.69 -0.74,-4.031l-26.007 -4.211 -0.329 -1.261c-0.68,-2.606 -1.412,-5.199 -2.211,-7.771l-0.387 -1.244 19.858 -17.311c-0.483,-1.275 -0.98,-2.546 -1.489,-3.811l-26.348 0.639 -0.555 -1.177c-1.148,-2.429 -2.352,-4.831 -3.609,-7.206l-0.61 -1.152 16.337 -20.662c-0.712,-1.172 -1.436,-2.338 -2.172,-3.496l-25.788 5.472 -0.763 -1.055c-1.568,-2.168 -3.184,-4.302 -4.849,-6.398l-0.811 -1.021 12.259 -23.307c-0.92,-1.029 -1.85,-2.049 -2.79,-3.059l-24.324 10.108 -0.944 -0.898c-1.936,-1.844 -3.915,-3.643 -5.933,-5.397l-0.983 -0.854 7.772 -25.174c-1.094,-0.841 -2.197,-1.67 -3.308,-2.488l-22.05 14.404 -1.093 -0.71c-2.243,-1.46 -4.519,-2.868 -6.826,-4.224l-1.122 -0.66 3.015 -26.185c-1.223,-0.624 -2.453,-1.236 -3.689,-1.835l-19.036 18.218 -1.204 -0.497c-2.478,-1.023 -4.978,-1.993 -7.5,-2.901l-1.226 -0.442 -1.846 -26.275c-1.318,-0.388 -2.641,-0.763 -3.967,-1.123l-15.368 21.411 -1.273 -0.265c-2.618,-0.545 -5.248,-1.024 -7.888,-1.448l-1.288 -0.208 -6.642 -25.484c-1.378,-0.139 -2.757,-0.265 -4.138,-0.376zm-16.222 51.588c82.235,0 148.925,66.69 148.925,148.925 0,82.235 -66.69,148.925 -148.925,148.925 -82.235,0 -148.925,-66.69 -148.925,-148.925 0,-82.235 66.69,-148.925 148.925,-148.925z"/>
  <line id="center" class="fil8" x1="1038.09" y1="1034.68" x2="1038.09" y2= "1034.68" />
 </g>
</svg>
