<?xml version="1.0" encoding="UTF-8"?>
<!DOCTYPE svg PUBLIC "-//W3C//DTD SVG 1.1//EN" "http://www.w3.org/Graphics/SVG/1.1/DTD/svg11.dtd">
<!-- Creator: CorelDRAW -->
<svg xmlns="http://www.w3.org/2000/svg" xml:space="preserve" width="100%" height="100%" style="shape-rendering:geometricPrecision; text-rendering:geometricPrecision; image-rendering:optimizeQuality; fill-rule:evenodd; clip-rule:evenodd"
viewBox="0 0 1500 1500"
 xmlns:xlink="http://www.w3.org/1999/xlink">
 <defs>
  <style type="text/css">
   <![CDATA[
    .str0 {stroke:#1F1A17;stroke-width:0.762}
    .fil3 {fill:none}
    .fil0 {fill:black}
    .fil1 {fill:#4C4C4C}
    .fil5 {fill:#999999}
    .fil2 {fill:#B2B2B2}
    .fil6 {fill:#E5E5E5}
    .fil4 {fill:#FFB726}
   ]]>
  </style>
  <script type="text/javascript" xlink:href="star_engine.js" /> 
 </defs>
 <g id="圖層_x0020_2">
  <metadata id="CorelCorpID_0Corel-Layer"/>
  <g id="crankshaft">
   <path id="_93780176" class="fil0" d="M784.033 824.018l166.629 167.404 -1.417 1.41c-58.092,57.826 -135.995,90.017 -217.978,90.017 -81.983,0 -159.886,-32.191 -217.978,-90.017l-1.417 -1.41 166.629 -167.404 0 -147.204c0,-29.137 23.629,-52.766 52.766,-52.766 29.137,0 52.766,23.629 52.766,52.766l0 147.204z"/>
   <path id="_93780104" class="fil1" d="M782.033 676.814l0 148.03 165.801 166.571c-55.521,55.266 -132.059,89.434 -216.567,89.434 -84.508,0 -161.046,-34.168 -216.567,-89.434l165.801 -166.571 0 -148.03c0,-28.033 22.733,-50.766 50.766,-50.766 28.033,0 50.766,22.733 50.766,50.766z"/>
   <path id="_93780032" class="fil0" d="M731.267 755.534c10.11,0 18.308,8.198 18.308,18.308 0,10.11 -8.198,18.308 -18.308,18.308 -10.11,0 -18.308,-8.198 -18.308,-18.308 0,-10.11 8.198,-18.308 18.308,-18.308zm0 -19.475c20.863,0 37.783,16.919 37.783,37.783 0,20.863 -16.92,37.783 -37.783,37.783 -20.864,0 -37.783,-16.92 -37.783,-37.783 0,-20.864 16.919,-37.783 37.783,-37.783zm0 17.475c11.214,0 20.308,9.094 20.308,20.308 0,11.214 -9.094,20.308 -20.308,20.308 -11.214,0 -20.308,-9.094 -20.308,-20.308 0,-11.214 9.094,-20.308 20.308,-20.308zm0 -15.475c-19.76,0 -35.783,16.023 -35.783,35.783 0,19.76 16.023,35.783 35.783,35.783 19.759,0 35.783,-16.024 35.783,-35.783 0,-19.76 -16.023,-35.783 -35.783,-35.783z"/>
   <g id="rod_m">
    <path id="_93779960" class="fil0" d="M857.338 700.509l-21.905 67.383c9.119,8.256 14.284,19.886 14.284,32.189 0,23.972 -19.44,43.412 -43.412,43.412 -17.652,0 -33.543,-10.694 -40.209,-27.033l0 -0.001 -69.656 0.001c-6.666,16.341 -22.56,27.033 -40.212,27.033 -23.972,0 -43.412,-19.44 -43.412,-43.412 0,-12.303 5.168,-23.931 14.286,-32.188l-21.908 -67.385c-22.043,-2.339 -38.783,-21.008 -38.783,-43.165 0,-23.972 19.44,-43.412 43.412,-43.412 6.769,0 13.421,1.561 19.47,4.602l59.994 -43.572 5.869 -4.555 0 -17.196 4.318 -314.545c-2.446,-3.619 -4.25,-7.629 -5.344,-11.857 -5.278,-20.341 7.154,-41.499 27.497,-46.775 20.343,-5.288 41.504,7.164 46.78,27.506 2.773,10.688 0.825,21.951 -5.347,31.103l4.556 331.948 5.609 4.354 60.019 43.591c6.049,-3.042 12.696,-4.603 19.466,-4.603 23.972,0 43.412,19.44 43.412,43.412 0,22.158 -16.74,40.826 -38.784,43.165l0 0z"/>
    <path id="_93779888" class="fil2" d="M852.71 615.932c-6.462,0 -12.794,1.486 -18.568,4.39l-1.089 0.547 -61.016 -44.316 -6.408 -4.973 -0.252 -18.372 -4.325 -315.165 0.35 -0.519c5.85,-8.674 7.699,-19.346 5.069,-29.483 -5.02,-19.355 -24.984,-31.104 -44.341,-26.072 -19.357,5.02 -31.087,24.981 -26.064,44.337 1.038,4.011 2.745,7.807 5.065,11.24l0.351 0.52 -4.326 315.165 0 18.155 -6.656 5.165 -61.017 44.316 -1.088 -0.547c-5.774,-2.903 -12.111,-4.389 -18.572,-4.389 -22.868,0 -41.412,18.544 -41.412,41.412 0,21.146 15.978,38.946 36.994,41.176l1.29 0.137 22.709 69.85 -0.959 0.869c-8.698,7.877 -13.629,18.964 -13.629,30.706 0,22.868 18.544,41.412 41.412,41.412 16.862,0 32.01,-10.221 38.36,-25.788l0.508 -1.245 72.344 -0.001 0.508 1.245c6.35,15.566 21.495,25.789 38.357,25.789 22.868,0 41.412,-18.544 41.412,-41.412 0,-11.742 -4.928,-22.831 -13.627,-30.707l-0.96 -0.87 22.707 -69.847 1.29 -0.137c21.016,-2.23 36.995,-20.029 36.995,-41.176 0,-22.868 -18.544,-41.412 -41.412,-41.412z"/>
    <path id="_93779816" class="fil0" d="M731.267 663.696c-18.271,0 -33.104,14.833 -33.104,33.104 0,18.271 14.833,33.103 33.104,33.103 18.271,0 33.103,-14.832 33.103,-33.103 0,-18.271 -14.832,-33.104 -33.103,-33.104zm0 6.763c14.547,0 26.341,11.794 26.341,26.341 0,14.547 -11.794,26.341 -26.341,26.341 -14.547,0 -26.341,-11.794 -26.341,-26.341 0,-14.547 11.794,-26.341 26.341,-26.341zm0 -8.763c19.375,0 35.103,15.729 35.103,35.104 0,19.375 -15.728,35.103 -35.103,35.103 -19.375,0 -35.104,-15.728 -35.104,-35.103 0,-19.375 15.729,-35.104 35.104,-35.104zm0 10.763c13.443,0 24.341,10.898 24.341,24.341 0,13.443 -10.898,24.341 -24.341,24.341 -13.443,0 -24.341,-10.898 -24.341,-24.341 0,-13.443 10.898,-24.341 24.341,-24.341z"/>
    <line id="rod_m_line" class="fil3" x1="731.267" y1="217.173" x2="731.267" y2= "696.8" />
    <g id="piston_m">
     <polygon id="_93779624" class="fil0" points="641.908,285.259 819.566,285.259 819.566,147.142 749.319,130.466 712.155,130.466 641.908,147.142 "/>
     <path id="_93779552" class="fil4" d="M644.005 283.161l0 -98.664 173.464 0 0 98.664 -173.464 0zm0 -107.113l0 -10.673 173.464 0 0 10.673 -173.464 0zm0 -19.122l0 -8.125 68.395 -16.237 36.674 0 68.395 16.237 0 8.125 -173.464 0z"/>
     <path id="_93779480" class="fil0" d="M731.293 240.307c12.527,0 22.68,-10.152 22.68,-22.679 0,-12.528 -10.153,-22.68 -22.68,-22.68 -12.527,0 -22.68,10.152 -22.68,22.68 0,12.527 10.153,22.679 22.68,22.679z"/>
     <path id="_93779408" class="fil5" d="M731.293 226.522c4.913,0 8.894,-3.982 8.894,-8.894 0,-4.913 -3.981,-8.894 -8.894,-8.894 -4.913,0 -8.894,3.981 -8.894,8.894 0,4.912 3.981,8.894 8.894,8.894z"/>
     <path id="_93779336" class="fil6" d="M731.293 238.21c-11.369,0 -20.582,-9.213 -20.582,-20.582 0,-11.37 9.213,-20.583 20.582,-20.583 11.369,0 20.582,9.213 20.582,20.583 0,11.369 -9.213,20.582 -20.582,20.582zm0 -9.591c6.07,0 10.992,-4.921 10.992,-10.991 0,-6.071 -4.922,-10.992 -10.992,-10.992 -6.071,0 -10.992,4.921 -10.992,10.992 0,6.07 4.921,10.991 10.992,10.991z"/>
    </g>
    <g id="rod_4">
     <path id="_93779192" class="fil0" d="M284.458 591.18l312.852 28.545c2.121,-0.702 4.33,-1.239 6.614,-1.584 21.655,-3.255 41.839,11.664 45.1,33.303 3.256,21.655 -11.664,41.839 -33.302,45.1 -9.331,1.402 -18.39,-0.574 -25.938,-5.004l-311.948 -37.12c-3.755,2.001 -7.905,3.41 -12.353,4.075 -20.952,3.15 -40.497,-11.277 -43.643,-32.236 -3.159,-20.952 11.286,-40.5 32.244,-43.648 11.325,-1.701 22.237,1.741 30.374,8.569z"/>
     <path id="_93758608" class="fil6" d="M283.173 592.712c-8.015,-6.725 -18.435,-9.679 -28.792,-8.123 -19.773,2.97 -33.545,21.596 -30.563,41.373 2.969,19.776 21.595,33.528 41.369,30.556 4.098,-0.614 8.052,-1.914 11.708,-3.863l0.554 -0.295 312.987 37.244 0.36 0.212c7.434,4.362 16.103,6.031 24.628,4.75 20.462,-3.084 34.699,-22.36 31.622,-42.824 -3.084,-20.463 -22.359,-34.7 -42.824,-31.623 -2.133,0.321 -4.236,0.826 -6.283,1.505l-0.396 0.13 -313.89 -28.64 -0.48 -0.402zm322.624 37.889c-14.762,2.218 -24.943,15.995 -22.715,30.768 2.217,14.761 15.994,24.943 30.767,22.715 14.762,-2.217 24.943,-15.995 22.715,-30.767 -2.217,-14.762 -15.994,-24.944 -30.767,-22.716zm0.795 5.261c11.861,-1.78 22.926,6.392 24.711,18.25 1.78,11.861 -6.392,22.925 -18.25,24.711 -11.861,1.78 -22.925,-6.392 -24.71,-18.25 -1.78,-11.861 6.392,-22.925 18.249,-24.711zm0.292 1.982c10.766,-1.611 20.818,5.798 22.438,16.56 1.61,10.766 -5.799,20.817 -16.56,22.438 -10.766,1.61 -20.818,-5.799 -22.438,-16.56 -1.611,-10.767 5.799,-20.818 16.56,-22.438zm-1.372 -9.226c15.854,-2.383 30.642,8.548 33.036,24.413 2.383,15.854 -8.549,30.643 -24.414,33.037 -15.854,2.383 -30.642,-8.549 -33.036,-24.414 -2.383,-15.854 8.549,-30.642 24.414,-33.036z"/>
     <line id="rod_4_line" class="fil3" x1="259.784" y1="620.555" x2="609.823" y2= "657.343" />
     <g id="piston_4">
      <polygon id="_93758416" class="fil0" points="296.421,727.192 352.203,557.44 220.233,514.075 182.242,575.959 170.573,611.47 164.451,683.826 "/>
      <path id="_93758344" class="fil4" d="M295.076 724.529l-94.274 -30.978 54.464 -165.743 94.274 30.978 -54.464 165.743zm-102.347 -33.631l-10.198 -3.351 54.464 -165.743 10.198 3.351 -54.464 165.743zm-18.271 -6.004l-7.764 -2.551 5.961 -70.449 11.514 -35.041 36.989 -60.254 7.764 2.552 -54.464 165.743z"/>
      <path id="_93758272" class="fil0" d="M281.535 627.671c3.934,-11.969 -2.579,-24.858 -14.549,-28.791 -11.97,-3.933 -24.858,2.58 -28.792,14.549 -3.933,11.97 2.58,24.859 14.55,28.792 11.97,3.933 24.858,-2.58 28.791,-14.55z"/>
      <path id="_93758200" class="fil5" d="M268.363 623.343c1.543,-4.694 -1.012,-9.748 -5.706,-11.291 -4.694,-1.542 -9.748,1.012 -11.29,5.706 -1.543,4.694 1.011,9.748 5.705,11.291 4.694,1.542 9.749,-1.012 11.291,-5.706z"/>
      <path id="_93758128" class="fil6" d="M279.531 627.013c-3.57,10.863 -15.265,16.773 -26.129,13.204 -10.863,-3.57 -16.773,-15.266 -13.203,-26.129 3.569,-10.863 15.265,-16.774 26.128,-13.204 10.864,3.57 16.774,15.265 13.204,26.129zm-9.164 -3.011c1.906,-5.801 -1.251,-12.048 -7.051,-13.954 -5.8,-1.906 -12.048,1.251 -13.954,7.051 -1.906,5.801 1.251,12.048 7.052,13.954 5.8,1.906 12.047,-1.251 13.953,-7.051z"/>
     </g>
    </g>
    <g id="rod_3">
     <path id="_93757960" class="fil0" d="M470.07 1075.01l146.621 -277.837c0.168,-2.228 0.521,-4.474 1.081,-6.714 5.32,-21.242 26.852,-34.14 48.081,-28.832 21.243,5.319 34.14,26.852 28.832,48.081 -2.292,9.153 -7.599,16.756 -14.59,22.021l-154.19 273.706c0.403,4.235 0.109,8.608 -0.987,12.97 -5.147,20.552 -25.979,33.049 -46.537,27.897 -20.556,-5.139 -33.049,-25.988 -27.897,-46.546 2.782,-11.109 10.155,-19.859 19.586,-24.746z"/>
     <path id="_93757888" class="fil6" d="M470.991 1076.78c-9.289,4.814 -16.023,13.298 -18.567,23.457 -4.861,19.396 7.04,39.269 26.444,44.12 19.397,4.861 39.253,-7.046 44.111,-26.444 1.009,-4.019 1.328,-8.169 0.935,-12.293l-0.059 -0.625 154.703 -274.617 0.334 -0.251c6.885,-5.187 11.758,-12.548 13.853,-20.91 5.019,-20.075 -7.302,-40.628 -27.377,-45.655 -20.076,-5.019 -40.628,7.302 -45.655,27.377 -0.524,2.093 -0.866,4.228 -1.027,6.378l-0.031 0.416 -147.109 278.759 -0.555 0.288zm159.004 -283.265c-3.628,14.479 5.176,29.175 19.67,32.797 14.48,3.628 29.176,-5.176 32.798,-19.67 3.628,-14.48 -5.177,-29.176 -19.671,-32.798 -14.479,-3.628 -29.175,5.177 -32.797,19.671zm5.162 1.288c2.917,-11.634 14.714,-18.706 26.347,-15.796 11.634,2.916 18.707,14.714 15.796,26.347 -2.916,11.634 -14.714,18.706 -26.347,15.796 -11.633,-2.917 -18.706,-14.714 -15.796,-26.347zm1.941 0.492c2.652,-10.558 13.356,-16.989 23.914,-14.347 10.558,2.652 16.989,13.356 14.347,23.913 -2.652,10.558 -13.356,16.989 -23.913,14.348 -10.558,-2.652 -16.989,-13.356 -14.348,-23.914zm-9.044 -2.279c3.895,-15.552 19.671,-25.002 35.238,-21.113 15.551,3.895 25.001,19.672 21.112,35.238 -3.895,15.552 -19.672,25.001 -35.238,21.112 -15.552,-3.895 -25.001,-19.671 -21.112,-35.237z"/>
     <line id="rod_3_line" class="fil3" x1="487.702" y1="1109.08" x2="656.229" y2= "800.081" />
     <g id="piston_3">
      <polygon id="_93757696" class="fil0" points="599.7,1106.74 456.453,1002.32 375.269,1113.68 422.108,1168.42 452.073,1190.26 518.516,1218.11 "/>
      <path id="_93757624" class="fil4" d="M596.776 1107.2l-57.994 79.553 -139.865 -101.96 57.994 -79.553 139.865 101.96zm-62.961 86.366l-6.273 8.606 -139.865 -101.96 6.274 -8.606 139.864 101.96zm-11.239 15.418l-4.776 6.552 -64.692 -27.11 -29.57 -21.556 -45.603 -53.294 4.776 -6.552 139.865 101.96z"/>
      <path id="_93757552" class="fil0" d="M501.206 1090.45c-10.101,-7.363 -24.255,-5.144 -31.618,4.956 -7.363,10.101 -5.145,24.255 4.956,31.618 10.101,7.364 24.255,5.145 31.618,-4.956 7.363,-10.1 5.145,-24.254 -4.956,-31.618z"/>
      <path id="_93757480" class="fil5" d="M493.103 1101.57c-3.961,-2.888 -9.512,-2.018 -12.399,1.944 -2.888,3.961 -2.018,9.511 1.943,12.399 3.961,2.887 9.512,2.017 12.399,-1.944 2.888,-3.961 2.018,-9.511 -1.943,-12.399z"/>
      <path id="_93757408" class="fil6" d="M499.973 1092.14c9.167,6.683 11.18,19.526 4.498,28.693 -6.683,9.167 -19.527,11.181 -28.694,4.498 -9.167,-6.683 -11.18,-19.526 -4.498,-28.694 6.683,-9.167 19.527,-11.18 28.694,-4.497zm-5.637 7.733c-4.895,-3.569 -11.755,-2.493 -15.324,2.402 -3.568,4.894 -2.493,11.755 2.402,15.323 4.895,3.568 11.755,2.493 15.324,-2.402 3.568,-4.895 2.493,-11.755 -2.402,-15.323z"/>
     </g>
    </g>
    <g id="rod_2">
     <path id="_93757240" class="fil0" d="M936.726 1105.42l-154.267 -273.666c-1.783,-1.347 -3.48,-2.859 -5.061,-4.543 -14.983,-15.97 -14.174,-41.057 1.78,-56.035 15.97,-14.983 41.056,-14.174 56.034,1.78 6.456,6.881 9.977,15.459 10.621,24.187l146.696 277.794c3.779,1.953 7.297,4.568 10.372,7.85 14.496,15.452 13.729,39.733 -1.73,54.23 -15.447,14.504 -39.74,13.725 -54.239,-1.734 -7.835,-8.352 -11.202,-19.288 -10.206,-29.863z"/>
     <path id="_93757168" class="fil6" d="M938.717 1105.61c-0.98,10.416 2.509,20.67 9.674,28.308 13.679,14.584 36.831,15.334 51.412,1.644 14.586,-13.68 15.32,-36.821 1.638,-51.405 -2.832,-3.023 -6.149,-5.538 -9.83,-7.44l-0.557 -0.288 -147.185 -278.719 -0.031 -0.416c-0.634,-8.597 -4.186,-16.679 -10.084,-22.966 -14.164,-15.087 -38.115,-15.85 -53.207,-1.69 -15.087,14.164 -15.85,38.115 -1.691,53.207 1.476,1.573 3.087,3.016 4.808,4.315l0.332 0.252 154.779 274.575 -0.058 0.623zm-152.13 -287.017c10.212,10.888 27.335,11.439 38.225,1.211 10.888,-10.211 11.438,-27.334 1.211,-38.224 -10.212,-10.888 -27.334,-11.439 -38.225,-1.212 -10.887,10.212 -11.438,27.335 -1.211,38.225zm3.878 -3.643c-8.204,-8.75 -7.766,-22.498 0.977,-30.704 8.749,-8.204 22.497,-7.766 30.704,0.977 8.204,8.749 7.766,22.498 -0.978,30.704 -8.749,8.204 -22.497,7.766 -30.703,-0.977zm1.464 -1.366c-7.442,-7.945 -7.056,-20.426 0.879,-27.873 7.944,-7.443 20.426,-7.057 27.873,0.878 7.443,7.945 7.057,20.426 -0.878,27.873 -7.945,7.443 -20.426,7.057 -27.874,-0.878zm-6.812 6.371c-10.969,-11.692 -10.376,-30.073 1.32,-41.057 11.692,-10.969 30.072,-10.376 41.057,1.32 10.968,11.692 10.375,30.073 -1.32,41.057 -11.692,10.969 -30.073,10.375 -41.057,-1.32z"/>
     <line id="rod_2_line" class="fil3" x1="974.918" y1="1109.03" x2="806.305" y2= "800.081" />
     <g id="piston_2">
      <polygon id="_93756976" class="fil0" points="1007.56,1001.34 863.321,1105.85 944.566,1217.98 1011.41,1190.2 1041.58,1168.34 1088.81,1113.48 "/>
      <path id="_93756904" class="fil4" d="M1007.1 1004.28l58.037 80.106 -140.836 102.037 -58.038 -80.107 140.837 -102.036zm63.007 86.966l6.279 8.666 -140.837 102.036 -6.278 -8.665 140.836 -102.037zm11.249 15.526l4.779 6.597 -45.979 53.415 -29.776 21.572 -65.081 27.049 -4.78 -6.597 140.837 -102.036z"/>
      <path id="_93756832" class="fil0" d="M961.433 1090.42c-10.171,7.369 -12.442,21.584 -5.073,31.755 7.369,10.171 21.584,12.442 31.755,5.073 10.171,-7.368 12.442,-21.584 5.073,-31.755 -7.369,-10.17 -21.584,-12.441 -31.755,-5.073z"/>
      <path id="_93756760" class="fil5" d="M969.543 1101.61c-3.989,2.89 -4.88,8.465 -1.99,12.453 2.89,3.989 8.464,4.879 12.453,1.99 3.989,-2.89 4.879,-8.465 1.99,-12.453 -2.89,-3.989 -8.465,-4.88 -12.453,-1.99z"/>
      <path id="_93756688" class="fil6" d="M962.667 1092.12c9.231,-6.688 22.13,-4.627 28.818,4.603 6.688,9.231 4.627,22.131 -4.604,28.818 -9.23,6.688 -22.13,4.627 -28.818,-4.603 -6.687,-9.231 -4.627,-22.131 4.604,-28.818zm5.642 7.786c-4.929,3.571 -6.03,10.461 -2.459,15.39 3.571,4.929 10.461,6.03 15.39,2.459 4.929,-3.571 6.03,-10.461 2.459,-15.39 -3.571,-4.929 -10.462,-6.03 -15.39,-2.459z"/>
     </g>
    </g>
    <g id="rod_1">
     <path id="_91491056" class="fil0" d="M1184.72 654.446l-311.954 37.095c-1.929,1.127 -3.978,2.112 -6.14,2.923 -20.506,7.685 -43.35,-2.714 -51.037,-23.202 -7.684,-20.506 2.715,-43.35 23.203,-51.037 8.835,-3.311 18.107,-3.26 26.411,-0.496l312.852 -28.519c3.257,-2.737 7.023,-4.978 11.236,-6.553 19.84,-7.435 41.956,2.615 49.39,22.462 7.444,19.838 -2.623,41.961 -22.47,49.396 -10.724,4.018 -22.113,2.918 -31.491,-2.069z"/>
     <path id="_91490984" class="fil6" d="M1185.66 652.68c9.237,4.912 20.044,5.636 29.851,1.962 18.725,-7.014 28.324,-28.096 21.298,-46.822 -7.014,-18.726 -28.091,-28.307 -46.817,-21.29 -3.88,1.451 -7.477,3.545 -10.649,6.211l-0.481 0.403 -313.893 28.615 -0.396 -0.133c-8.179,-2.721 -17.005,-2.553 -25.078,0.472 -19.374,7.269 -29.294,29.083 -22.032,48.461 7.27,19.375 29.083,29.295 48.461,22.032 2.02,-0.757 3.972,-1.688 5.833,-2.777l0.36 -0.21 312.99 -37.218 0.553 0.294zm-323.455 29.985c13.979,-5.236 21.075,-20.829 15.826,-34.816 -5.237,-13.978 -20.829,-21.075 -34.817,-15.825 -13.978,5.236 -21.075,20.829 -15.825,34.816 5.237,13.979 20.829,21.075 34.816,15.825zm-1.871 -4.98c-11.232,4.206 -23.753,-1.489 -27.964,-12.716 -4.206,-11.233 1.488,-23.754 12.716,-27.964 11.232,-4.207 23.753,1.488 27.964,12.716 4.206,11.232 -1.489,23.753 -12.716,27.964zm-0.697 -1.878c-10.197,3.813 -21.569,-1.346 -25.39,-11.535 -3.812,-10.197 1.346,-21.569 11.536,-25.39 10.196,-3.813 21.568,1.346 25.389,11.535 3.813,10.197 -1.345,21.569 -11.535,25.39zm3.26 8.739c-15.013,5.626 -31.75,-1.993 -37.389,-17.015 -5.626,-15.012 1.994,-31.75 17.015,-37.388 15.013,-5.626 31.75,1.994 37.389,17.015 5.625,15.012 -1.994,31.75 -17.015,37.388z"/>
     <line id="rod_1_line" class="fil3" x1="1202.75" y1="620.584" x2="852.71" y2= "657.345" />
     <g id="piston_1">
      <polygon id="_91490792" class="fil0" points="1110.21,556.681 1165.94,725.951 1297.54,682.624 1291.39,610.462 1279.73,575.053 1241.81,513.354 "/>
      <path id="_91490720" class="fil4" d="M1112.87 558.022l94.006 -30.951 54.415 165.273 -94.005 30.951 -54.416 -165.273zm102.056 -33.602l10.169 -3.348 54.416 165.273 -10.169 3.348 -54.416 -165.273zm18.22 -5.999l7.741 -2.549 36.926 60.073 11.504 34.941 5.986 70.26 -7.742 2.549 -54.415 -165.274z"/>
      <path id="_91490648" class="fil0" d="M1181.08 627.744c3.93,11.936 16.788,18.425 28.724,14.495 11.935,-3.93 18.424,-16.788 14.494,-28.724 -3.93,-11.936 -16.788,-18.424 -28.724,-14.494 -11.936,3.93 -18.424,16.788 -14.494,28.723z"/>
      <path id="_91490576" class="fil5" d="M1194.22 623.42c1.541,4.681 6.583,7.225 11.264,5.684 4.681,-1.541 7.225,-6.584 5.684,-11.264 -1.541,-4.681 -6.583,-7.225 -11.264,-5.684 -4.681,1.541 -7.225,6.583 -5.684,11.264z"/>
      <path id="_91490504" class="fil6" d="M1183.08 627.086c-3.566,-10.832 2.322,-22.5 13.154,-26.067 10.833,-3.566 22.501,2.322 26.067,13.154 3.567,10.833 -2.321,22.501 -13.153,26.067 -10.833,3.567 -22.501,-2.321 -26.068,-13.154zm9.138 -3.008c1.904,5.784 8.137,8.929 13.921,7.025 5.784,-1.905 8.929,-8.137 7.025,-13.921 -1.905,-5.784 -8.137,-8.929 -13.921,-7.025 -5.784,1.904 -8.929,8.137 -7.025,13.921z"/>
     </g>
    </g>
   </g>
  </g>
  <g id="_91489616">
   <polygon id="_91490288" class="fil0" points="634.043,462.683 634.043,103.097 707.77,68.083 753.704,68.083 827.431,103.097 827.431,462.683 815.431,450.683 815.431,110.683 750.999,80.083 710.475,80.083 646.043,110.683 646.043,450.683 "/>
   <polygon id="_91490216" class="fil1" points="636.043,457.855 636.043,104.361 708.221,70.083 753.253,70.083 825.431,104.361 825.431,457.855 817.431,449.855 817.431,109.419 751.45,78.083 710.024,78.083 644.043,109.419 644.043,449.855 "/>
   <polygon id="_91490144" class="fil0" points="405.293,770.154 63.307,659.036 52.789,578.097 66.984,534.412 123.067,475.113 465.054,586.231 449.933,593.936 126.573,488.87 77.561,540.692 65.038,579.233 74.23,649.967 397.589,755.033 "/>
   <polygon id="_91490072" class="fil1" points="401.32,766.76 65.127,657.524 54.831,578.287 68.746,535.459 123.651,477.406 459.844,586.641 449.763,591.778 125.989,486.577 75.798,539.645 62.996,579.044 72.409,651.479 396.183,756.679 "/>
   <polygon id="_91490000" class="fil0" points="997.153,585.223 1339.14,474.105 1395.22,533.404 1409.42,577.089 1398.9,658.028 1056.91,769.146 1064.62,754.025 1387.98,648.959 1397.17,578.225 1384.65,539.684 1335.63,487.862 1012.27,592.928 "/>
   <polygon id="_91489928" class="fil1" points="1002.36,585.633 1338.56,476.398 1393.46,534.45 1407.38,577.278 1397.08,656.516 1060.89,765.752 1066.02,755.671 1389.8,650.471 1399.21,578.036 1386.41,538.637 1336.22,485.569 1012.44,590.77 "/>
   <polygon id="_91489856" class="fil0" points="627.028,1082.72 415.669,1373.63 335.442,1358.62 298.28,1331.63 259.215,1259.96 470.574,969.051 473.229,985.813 273.382,1260.88 307.522,1323.51 340.307,1347.33 410.42,1360.44 610.267,1085.38 "/>
   <polygon id="_91489784" class="fil1" points="622.572,1085.45 414.794,1371.43 336.252,1356.74 299.821,1330.27 261.576,1260.12 469.354,974.133 471.124,985.307 271.021,1260.73 305.982,1324.86 339.496,1349.21 411.295,1362.64 611.398,1087.22 "/>
   <polygon id="_91489712" class="fil0" points="992.818,968.428 1204.18,1259.34 1165.11,1331 1127.95,1358 1047.72,1373.01 836.363,1082.1 853.125,1084.75 1052.97,1359.82 1123.09,1346.7 1155.87,1322.88 1190.01,1260.26 990.163,985.19 "/>
   <polygon id="_91489640" class="fil1" points="994.037,973.51 1201.82,1259.49 1163.57,1329.65 1127.14,1356.12 1048.6,1370.81 840.819,1084.83 851.994,1086.6 1052.1,1362.02 1123.9,1348.59 1157.41,1324.24 1192.37,1260.1 992.267,984.684 "/>
  </g>
  <line id="center" class="fil3 str0" x1="731.267" y1="773.842" x2="731.267" y2= "773.842" />
 </g>
</svg>
