<?xml version="1.0" encoding="UTF-8"?>
<!DOCTYPE svg PUBLIC "-//W3C//DTD SVG 1.1//EN" "http://www.w3.org/Graphics/SVG/1.1/DTD/svg11.dtd">
<!-- Creator: CorelDRAW -->
<svg xmlns="http://www.w3.org/2000/svg" xml:space="preserve" width="100%" height="100%" style="shape-rendering:geometricPrecision; text-rendering:geometricPrecision; image-rendering:optimizeQuality; fill-rule:evenodd; clip-rule:evenodd"
viewBox="0 0 1500 1500"
 xmlns:xlink="http://www.w3.org/1999/xlink">
 <defs>
  <style type="text/css">
   <![CDATA[
    .str0 {stroke:black;stroke-width:0.762}
    .fil4 {fill:none}
    .fil0 {fill:black}
    .fil2 {fill:#333333}
    .fil1 {fill:#666666}
    .fil6 {fill:#999999}
    .fil7 {fill:#B2B2B2}
    .fil3 {fill:#E5E5E5}
    .fil5 {fill:#FFBF40}
   ]]>
  </style>
  <script type="text/javascript" xlink:href="v_engine.js" /> 
 </defs>
 <g id="圖層_x0020_2">
  <metadata id="CorelCorpID_0Corel-Layer"/>
  <g id="crankshaft">
   <path id="_92029408" class="fil0" d="M552.317 909.698c-2.813,-9.675 -4.223,-19.696 -4.223,-29.778 0,-58.805 47.689,-106.495 106.496,-106.496 10.679,0 21.278,1.587 31.473,4.739l0.238 -0.234 290.768 109.806 0.233 1.782c1.634,12.487 2.46,25.073 2.459,37.666 0.001,158.817 -128.797,287.614 -287.614,287.613 -11.604,0.001 -23.201,-0.707 -34.722,-2.095l-1.871 -0.225 -103.447 -302.571 0.21 -0.207z"/>
   <path id="_92029336" class="fil1" d="M555.557 910.722l102.227 299.001c11.267,1.357 22.731,2.074 34.363,2.074 157.162,0 284.614,-127.453 284.614,-284.614 0,-12.636 -0.837,-25.076 -2.434,-37.276l-287.291 -108.494 -0.161 0.157c-10.16,-3.335 -21.009,-5.146 -32.285,-5.146 -57.151,0.001 -103.496,46.346 -103.496,103.496 0,10.671 1.617,20.964 4.617,30.651l-0.154 0.151z"/>
   <path id="_92029264" class="fil0" d="M733.76 849.064c66.136,0 119.77,53.634 119.77,119.77 0,66.136 -53.634,119.77 -119.77,119.77 -66.136,0 -119.77,-53.634 -119.77,-119.77 0,-66.136 53.634,-119.77 119.77,-119.77z"/>
   <path id="_92029192" class="fil2" d="M733.76 852.064c-64.48,0 -116.77,52.29 -116.77,116.77 0,64.48 52.29,116.77 116.77,116.77 64.479,0 116.77,-52.29 116.77,-116.77 0.001,-64.48 -52.29,-116.771 -116.77,-116.77z"/>
   <g id="rod_left">
    <polygon id="_92029120" class="fil0 str0" points="310.31,593.027 358.714,540.472 667.065,800.054 581.309,889.003 "/>
    <path id="_92029048" class="fil3" d="M314.383 593.032l266.983 291.59 81.311 -84.34 -303.701 -255.667 -44.593 48.417zm28.468 11.842l180.594 197.236c8.272,9.033 19.105,14.548 31.531,12.363 10.161,-1.787 19.219,-8.299 25.554,-16.255 7.144,-8.974 11.883,-21.191 9.914,-32.761 -1.206,-7.091 -4.821,-13.045 -10.305,-17.662l-206.603 -173.929c-16.564,-13.945 -45.054,15.315 -30.685,31.008zm-2.212 2.025l180.593 197.237c40.049,43.735 97.735,-27.571 60.839,-58.636l-206.603 -173.929c-19.411,-16.343 -51.727,16.875 -34.829,35.328z"/>
    <polygon id="_92028976" class="fil0" points="488.297,903.439 678.108,713.627 811.387,846.906 621.575,1036.72 "/>
    <path id="_92028904" class="fil3" d="M492.539 903.439l185.569 -185.569 63.528 63.527 -185.569 185.569 -63.528 -63.527zm251.078 -120.061l63.527 63.528 -185.569 185.568 -63.527 -63.527 185.569 -185.569z"/>
    <path id="_92028832" class="fil0" d="M304.616 481.671c31.815,0 57.616,25.801 57.616,57.616 0,31.815 -25.801,57.616 -57.616,57.617 -31.815,-0.001 -57.616,-25.802 -57.617,-57.617 0.001,-31.815 25.802,-57.616 57.617,-57.616zm0 22.046c-19.642,0 -35.57,15.928 -35.57,35.57 0,19.642 15.928,35.571 35.57,35.571 19.642,0 35.57,-15.929 35.57,-35.571 0,-19.642 -15.928,-35.57 -35.57,-35.57z"/>
    <path id="_92028760" class="fil3" d="M304.616 500.717c21.298,0 38.57,17.272 38.57,38.57 0,21.298 -17.272,38.57 -38.57,38.57 -21.298,0 -38.57,-17.272 -38.57,-38.57 0,-21.298 17.272,-38.57 38.57,-38.57zm0 -16.047c30.159,0.001 54.616,24.458 54.617,54.617 -0.001,30.159 -24.458,54.616 -54.617,54.617 -30.159,-0.001 -54.616,-24.458 -54.617,-54.617 0.001,-30.159 24.458,-54.616 54.617,-54.617z"/>
    <line id="rod_left_line" class="fil4" x1="649.842" y1="875.172" x2="304.616" y2= "539.287" />
    <g id="piston_left">
     <path id="_91966688" class="fil0" d="M164.462 400.075c35.725,-35.725 84.926,-48.863 128.196,-38.648l19.311 -19.312 170.953 170.953 -204.654 204.654 -170.953 -170.953 18.498 -18.498c-10.214,-43.269 2.923,-92.47 38.649,-128.196z"/>
     <path id="_91966616" class="fil5" d="M111.847 546.769l10.921 10.92 200.122 -200.121 -10.921 -10.921 -16.042 16.043 0 0.001 -168.85 168.85 0 -0.002 -15.23 15.23zm178.131 -182.663c-44.703,-9.793 -91.171,6.156 -123.25,38.235 -32.078,32.078 -48.031,78.551 -38.239,123.254l161.489 -161.489zm-161.69 199.104l11.04 11.04 200.122 -200.122 -11.04 -11.041 -200.122 200.123zm16.561 16.559l133.419 133.42 200.123 -200.121 -133.421 -133.42 -200.121 200.121z"/>
     <path id="_91966544" class="fil0" d="M304.615 498.085c22.751,0 41.201,18.45 41.201,41.201 0,22.751 -18.45,41.201 -41.201,41.201 -22.75,0 -41.201,-18.45 -41.201,-41.201 0,-22.751 18.451,-41.201 41.201,-41.201z"/>
     <path id="_91966472" class="fil2" d="M304.615 501.29c-20.981,0 -37.996,17.014 -37.996,37.996 0,20.982 17.015,37.997 37.996,37.997 20.982,0 37.997,-17.015 37.997,-37.997 0,-20.982 -17.015,-37.996 -37.997,-37.996zm0 12.818c13.908,0 25.178,11.271 25.178,25.178 0,13.907 -11.27,25.178 -25.178,25.178 -13.907,0 -25.177,-11.271 -25.177,-25.178 0,-13.907 11.27,-25.178 25.177,-25.178z"/>
    </g>
   </g>
   <g id="rod_right">
    <polygon id="_91966304" class="fil0 str0" points="1051.5,683.639 1016.67,621.255 656.331,801.867 719.007,908.345 "/>
    <path id="_91966232" class="fil3" d="M1047.54 682.696l-327.563 221.375 -59.428 -100.961 354.903 -177.887 32.088 57.473zm-30.443 4.885l-221.572 149.741c-10.148,6.857 -21.968,9.697 -33.543,4.678 -9.465,-4.105 -16.757,-12.548 -21.065,-21.761 -4.857,-10.391 -6.619,-23.376 -2.009,-34.169 2.824,-6.615 7.727,-11.563 14.135,-14.776l241.436 -121.016c19.357,-9.703 40.247,25.388 22.618,37.303zm1.679 2.484l-221.571 149.742c-49.135,33.203 -88.623,-49.579 -45.506,-71.195l241.436 -121.016c22.684,-11.372 46.373,28.46 25.641,42.469z"/>
    <polygon id="_91966160" class="fil0" points="806.097,944.051 665.724,715.245 505.065,813.81 645.439,1042.62 "/>
    <path id="_91966088" class="fil3" d="M801.971 943.062l-137.236 -223.691 -76.578 46.981 137.236 223.691 76.578 -46.981zm-216.202 -175.245l-76.578 46.981 137.236 223.692 76.578 -46.981 -137.236 -223.692z"/>
    <path id="_91966016" class="fil0" d="M1082.97 576.674c-30.939,-7.412 -62.041,11.669 -69.452,42.609 -7.411,30.94 11.67,62.041 42.609,69.454 30.94,7.41 62.042,-11.671 69.454,-42.611 7.41,-30.94 -11.671,-62.041 -42.611,-69.452zm-5.135 21.439c19.101,4.576 30.881,23.776 26.305,42.877 -4.575,19.102 -23.776,30.883 -42.877,26.307 -19.102,-4.576 -30.881,-23.777 -26.306,-42.878 4.576,-19.102 23.776,-30.881 42.878,-26.306z"/>
    <path id="_91965944" class="fil3" d="M1078.54 595.196c-20.712,-4.962 -41.533,7.812 -46.494,28.524 -4.961,20.712 7.812,41.532 28.524,46.494 20.712,4.961 41.533,-7.813 46.494,-28.525 4.961,-20.712 -7.812,-41.532 -28.524,-46.493zm3.738 -15.606c-29.33,-7.024 -58.811,11.063 -65.838,40.392 -7.024,29.329 11.063,58.811 40.392,65.837 29.33,7.025 58.811,-11.062 65.837,-40.392 7.025,-29.329 -11.062,-58.81 -40.391,-65.837z"/>
    <line id="rod_right_line" class="fil4" x1="655.581" y1="878.93" x2="1069.55" y2= "632.705" />
    <g id="piston_right">
     <path id="_92070888" class="fil0" d="M1207.59 495.601c-35.184,-35.185 -83.64,-48.123 -126.255,-38.064l-19.019 -19.019 -168.365 168.365 201.556 201.556 168.365 -168.365 -18.218 -18.218c10.06,-42.615 -2.879,-91.07 -38.064,-126.255z"/>
     <path id="_92070816" class="fil5" d="M1259.4 640.074l-10.755 10.755 -197.093 -197.092 10.756 -10.755 15.8 15.799 0 0.001 166.293 166.294 0 -0.001 14.999 14.999zm-175.434 -179.898c44.026,-9.645 89.791,6.063 121.384,37.656 31.593,31.593 47.304,77.362 37.66,121.388l-159.044 -159.044zm159.242 196.09l-10.873 10.873 -197.092 -197.092 10.873 -10.874 197.092 197.093zm-16.31 16.309l-131.399 131.4 -197.093 -197.092 131.4 -131.4 197.092 197.092z"/>
     <path id="_92070744" class="fil0" d="M1069.55 592.127c-22.406,0 -40.577,18.171 -40.577,40.577 0,22.407 18.171,40.578 40.577,40.578 22.407,0 40.578,-18.171 40.578,-40.578 0,-22.406 -18.171,-40.577 -40.578,-40.577z"/>
     <path id="_92070672" class="fil2" d="M1069.55 595.283c20.665,0 37.422,16.757 37.422,37.421 0,20.665 -16.757,37.422 -37.422,37.422 -20.664,0 -37.421,-16.757 -37.421,-37.422 0,-20.664 16.757,-37.421 37.421,-37.421zm0 12.625c-13.696,0 -24.796,11.1 -24.796,24.796 0,13.697 11.1,24.797 24.796,24.797 13.697,0 24.797,-11.1 24.797,-24.797 0,-13.696 -11.1,-24.796 -24.797,-24.796z"/>
    </g>
   </g>
   <path id="_92070504" class="fil0" d="M654.59 776.233c57.255,-0.001 103.688,46.432 103.687,103.687 0,57.255 -46.433,103.688 -103.687,103.688 -57.254,0 -103.687,-46.433 -103.687,-103.688 -0.001,-57.255 46.432,-103.688 103.687,-103.687z"/>
   <path id="_92070432" class="fil6" d="M654.59 800.232c-44.008,0 -79.688,35.681 -79.688,79.688 0,44.008 35.681,79.688 79.688,79.689 44.007,-0.001 79.688,-35.681 79.688,-79.689 0,-44.007 -35.68,-79.688 -79.688,-79.688zm0 -20.999c55.599,-0.001 100.688,45.088 100.688,100.687 0,55.599 -45.089,100.687 -100.688,100.688 -55.599,-0.001 -100.688,-45.089 -100.688,-100.688 0,-55.599 45.089,-100.688 100.688,-100.687zm0 18c-45.664,-0.001 -82.688,37.024 -82.688,82.687 0,45.664 37.025,82.687 82.688,82.688 45.663,-0.001 82.688,-37.024 82.688,-82.688 0,-45.663 -37.024,-82.688 -82.688,-82.687z"/>
  </g>
  <path class="fil0" d="M792.547 681.41l368.9 -368.9 21.152 21.153c52.089,-20.93 112.738,-6.17 152.86,33.951 40.122,40.122 54.882,100.772 33.952,152.861l20.39 20.39 -368.9 368.9 0 -36.77 332.131 -332.13 -15.169 -15.169c25.572,-42.563 18.253,-100.655 -20.788,-139.697 -39.042,-39.041 -97.134,-46.361 -139.697,-20.788l-15.931 -15.931 -332.13 332.13 -36.77 0zm-117.574 0l-368.9 -368.9 -21.152 21.153c-52.089,-20.93 -112.738,-6.17 -152.86,33.951 -40.122,40.122 -54.882,100.772 -33.952,152.861l-20.39 20.39 368.9 368.9 0 -36.77 -332.131 -332.13 15.169 -15.169c-25.572,-42.563 -18.253,-100.655 20.788,-139.697 39.042,-39.041 97.134,-46.361 139.697,-20.788l15.931 -15.931 332.13 332.13 36.77 0z"/>
  <path class="fil7" d="M667.73 678.41l-361.657 -361.657 -20.432 20.433 -1.839 -0.74c-51.538,-20.708 -110.82,-5.51 -149.62,33.29 -38.8,38.799 -53.998,98.082 -33.29,149.62l0.74 1.839 -19.671 19.67 361.657 361.657 0 -28.285 -333.372 -333.372 15.651 -15.651c-26.427,-46.219 -14.562,-104.347 22.427,-141.336 36.989,-36.989 95.117,-48.854 141.336,-22.427l16.413 -16.414 333.373 333.373 28.284 0zm132.06 0l361.657 -361.657 20.432 20.433 1.839 -0.74c51.538,-20.708 110.82,-5.51 149.62,33.29 38.8,38.799 53.998,98.082 33.29,149.62l-0.74 1.839 19.671 19.67 -361.657 361.657 0 -28.285 333.372 -333.372 -15.651 -15.651c26.427,-46.219 14.562,-104.347 -22.427,-141.336 -36.989,-36.989 -95.117,-48.854 -141.336,-22.427l-16.413 -16.414 -333.373 333.373 -28.284 0z"/>
  <line id="center" class="fil4" x1="733.76" y1="968.834" x2="733.76" y2= "968.834" />
 </g>
</svg>
